<?xml version="1.0" encoding="UTF-8"?>
<!-- Created with Inkscape (http://www.inkscape.org/) -->
<svg width="2711.8" height="3130.5" version="1.1" viewBox="0 0 2711.8 3130.5" xmlns="http://www.w3.org/2000/svg" xmlns:cc="http://creativecommons.org/ns#" xmlns:dc="http://purl.org/dc/elements/1.1/" xmlns:rdf="http://www.w3.org/1999/02/22-rdf-syntax-ns#">
 <metadata>
  <rdf:RDF>
   <cc:Work rdf:about="">
    <dc:format>image/svg+xml</dc:format>
    <dc:type rdf:resource="http://purl.org/dc/dcmitype/StillImage"/>
    <dc:title/>
   </cc:Work>
  </rdf:RDF>
 </metadata>
 <path d="m70.019 3129.8c-24.866-2.377-42.888-8.3711-53.81-17.897-3.5264-3.0757-7.4776-8.6493-10.577-14.92-4.2021-8.5023-5.0345-11.673-5.5266-21.049-0.31867-6.0713 0.10853-14.246 0.94929-18.167 2.2538-10.509 11.923-32.497 24.806-56.413 39.639-73.581 88.85-132.04 149.54-177.65 39.509-29.688 69.035-46.504 110.92-63.172 29.052-11.562 60.464-18.073 82.852-17.174 7.3313 0.2944 13.33 0.073 13.33-0.4905 0-0.5643-1.4743-8.0855-3.2762-16.714-14.52-69.531-23.372-147.68-28.963-255.69-2.1427-41.399-2.1368-182.25 9e-3 -230 12.744-283.52 49.728-484.52 139.1-756 74.36-225.87 154.99-391.33 291.08-597.33 136.57-206.74 249.8-339.47 354.65-415.72 40.825-29.692 89.839-56.586 127.06-69.72 8.9818-3.1689 15.882-6.1689 15.333-6.6665s-9.6971-2.7937-20.33-5.1024c-117.6-25.534-239.05-84.762-331.33-161.58-42.526-35.401-64.194-63.044-76.718-97.87-8.4753-23.569-5.2952-37.056 10.481-44.452l7.5698-3.5485 79.333-0.8543c43.633-0.4699 148.93-1.5228 234-2.3399 193-1.8539 239.23-3.1825 309.33-8.8901 70.456-5.7365 147.11-18.056 206.67-33.217 30.583-7.7845 49.891-14.184 71.132-23.576 27.238-12.044 46.595-16.301 54.53-11.993 3.7641 2.0435 8.3377 10.843 8.3377 16.042 0 2.1694-3.2167 10.443-7.1481 18.386-3.9315 7.9431-10.805 21.942-15.274 31.109-13.754 28.209-33.714 53.463-74.896 94.757-56.862 57.017-119.48 105.49-194.37 150.46-26.776 16.079-73.142 40.98-99.434 53.403-21.594 10.203-23.043 11.731-11.333 11.955 12.551 0.2409 50.118 7.3541 71.695 13.575 156.38 45.086 300.33 192.62 418.75 429.17 43.98 87.851 100.34 226.07 160.66 394.02 109.79 305.68 150.28 477.84 164.78 700.67 2.267 34.83 3.1176 163.65 1.3653 206.79-3.2821 80.818-9.8479 166.07-19.448 252.54-2.662 23.975-7.6171 53.75-12.066 72.502-0.6273 2.6443-0.3544 3.0116 1.6494 2.22 1.3205-0.5217 10.501-3.0986 20.401-5.7265l18-4.7779 37.587-0.5498c41.856-0.6123 62.25 1.0097 89.476 7.1158 19.295 4.3275 45.646 12.405 65.604 20.109 19.373 7.4788 65.626 31.125 90 46.012 100.61 61.45 116.3 72.406 137.72 96.176 18.951 21.031 30.849 45.311 35.656 72.761 2.2945 13.101 2.5845 45.166 0.5566 61.527-6.7581 54.526-37.983 98.015-96.306 134.13-34.673 21.472-66.8 37.353-95.11 47.014-12.458 4.2515-58.307 15.779-89.184 22.423l-17.333 3.7296-93.333-0.096c-61.908-0.064-98.721-0.6331-109.33-1.6907-41.905-4.1762-94.308-16.762-135.2-32.47-7.7748-2.9868-20.664-7.4163-28.643-9.8434l-14.507-4.4128-15.853 7.947c-67.903 34.039-215.8 83.24-357.8 119.03-339.83 85.651-619.85 103.76-940 60.793-36.08-4.8424-121.67-20.341-126.67-22.937-3.5545-1.8461-4.6218-3.6332-4.6462-7.7792-0.0284-4.8169 3.8685-7.8733 10.039-7.8733 2.8504 0 19.003 1.8045 35.895 4.01 136.55 17.829 229.58 27.181 298.05 29.96 10.633 0.4317 22.933 1.0452 27.333 1.3633 40.9 2.9565 151.63 1.5996 218-2.6715 215.04-13.838 468.37-64.396 686-136.91 60.676-20.217 151.02-55.522 150.26-58.717-0.2236-0.9373-1.4236-2.4655-2.6666-3.3961-5.8124-4.3515-6.9267-5.885-6.9267-9.5331 0-5.2797 3.1783-8.1101 9.0952-8.0995 5.4505 0.013 9.4375 2.298 16.564 9.507 2.6367 2.6669 7.3919 5.7578 10.567 6.8686 70.122 24.53 118.9 38.099 154.44 42.957 19.452 2.6593 118.64 5.0909 174 4.2658 42.813-0.638 43.845-0.757 82.667-9.5473 53.015-12.004 75.58-19.42 106-34.837 67.532-34.226 101.05-62.252 120.05-100.38 11.947-23.975 15.11-41.112 14.306-77.512-0.5297-23.99-0.8613-26.876-4.2893-37.333-7.8202-23.854-18.069-39.958-36.975-58.102-15.118-14.507-29.929-24.721-84.424-58.218-79.784-49.042-109.97-64.283-156.71-79.132-33.886-10.764-56.283-14.492-100.26-16.686-35.247-1.7588-47.679-1.0988-66.998 3.5568-13.803 3.3262-22.281 3.734-27.691 1.3314-1.7748-0.788-2.3333-0.4192-2.3333 1.5408 0 3.3928-5.4052 8.3751-9.086 8.3751-5.0275 0-8.2509-4.5767-8.2172-11.667 0.077-16.197 4.1783-78.073 6.5823-99.31 25.065-221.43 26.188-423.45 3.2641-587.02-22.728-162.17-62.267-306.9-153.9-563.33-75.879-212.36-140.82-361.63-204.99-471.23-137.35-234.56-310.84-354.46-483.66-334.26-16.053 1.8767-28.357 4.1262-37.157 6.7935-7.2361 2.1933-13.655 3.6796-14.265 3.3029-3.4999-2.163-49.628 14.512-77.832 28.135-59.528 28.755-112.88 68.613-174.75 130.55-60.842 60.907-120.69 134.34-193.46 237.37-126.58 179.22-213.25 331.05-280.86 492-54.076 128.74-112.16 309.4-145.6 452.87-41.268 177.06-61.94 360.4-64.322 570.47-1.3773 121.44 2.9182 201.05 17.518 324.67 9.2141 78.016 12.486 99.095 16.24 104.64 4.0611 6.0002 4.1374 12.509 0.17912 15.282-4.1399 2.8998-8.097 2.5967-15.575-1.1929-14.578-7.3871-32.064-7.4303-64.245-0.1588-23.909 5.4024-64.699 22.352-90.346 37.543-84.487 50.04-151.12 122.22-198.26 214.77-18.039 35.414-21.359 49.718-14.805 63.791 6.0512 12.994 17.373 18.959 41.933 22.091 13.773 1.7566 167.29-0.5489 188.93-2.8372 20.191-2.1349 44.524-7.2506 59.009-12.406 7.1449-2.543 21.391-7.6168 31.657-11.275 10.267-3.6584 29.167-10.874 42-16.034 52.566-21.137 121.97-38.191 166.88-41.008 6.8511-0.4296 14.438-1.384 16.861-2.1209 6.0979-1.8551 10.517-0.4167 12.905 4.2001 4.8017 9.2855 0.51431 16.206-11.447 18.476-3.9577 0.7511-15.596 2.3511-25.862 3.5555-47.714 5.5976-111.46 21.941-156 39.997-9.5333 3.8644-21.533 8.3813-26.667 10.038-5.1333 1.6561-18.696 6.4889-30.139 10.74-40.495 15.042-64.822 18.283-143.86 19.172-31.167 0.3504-68.067 0.9128-82 1.2499-13.933 0.337-30.652 0.104-37.153-0.517zm1312.2-2765.2c80.751-38.552 103.63-50.468 144.23-75.116 71.915-43.66 134.42-91.747 186.77-143.68 39.184-38.875 58.275-63.294 72.822-93.147 5.4892-11.264 9.6359-20.825 9.2148-21.246-0.4211-0.421-5.1048 1.2315-10.408 3.6724-31.831 14.65-59.208 23.358-106.75 33.957-76.338 17.017-159.32 27.817-251.56 32.737-44.491 2.3734-125.31 3.8913-253.33 4.7579-69.298 0.4691-126.36 1.0792-126.81 1.3557-0.4473 0.2765-39.68 0.8011-87.183 1.1658-47.504 0.3646-86.696 0.9893-87.095 1.3883-2.7666 2.7666 12.383 35.744 22.613 49.224 23.446 30.894 75.614 73.339 132.47 107.78 91.914 55.679 189.73 91.252 290.67 105.71 13.2 1.8912 24.6 3.6615 25.333 3.934 6.0189 2.2367 12.507 0.1585 39.014-12.496zm79.197 1198.5c0-1.8334 0.3027-2.5834 0.6725-1.6667 0.3699 0.9167 0.3699 2.4167 0 3.3333-0.3698 0.9167-0.6725 0.1667-0.6725-1.6666z"/>
</svg>
