<?xml version="1.0" encoding="UTF-8"?>
<!-- Created with Inkscape (http://www.inkscape.org/) -->
<svg width="2716.3" height="3120.2" version="1.1" viewBox="0 0 2716.3 3120.2" xmlns="http://www.w3.org/2000/svg" xmlns:cc="http://creativecommons.org/ns#" xmlns:dc="http://purl.org/dc/elements/1.1/" xmlns:rdf="http://www.w3.org/1999/02/22-rdf-syntax-ns#">
 <metadata>
  <rdf:RDF>
   <cc:Work rdf:about="">
    <dc:format>image/svg+xml</dc:format>
    <dc:type rdf:resource="http://purl.org/dc/dcmitype/StillImage"/>
    <dc:title/>
   </cc:Work>
  </rdf:RDF>
 </metadata>
 <path d="m42.025 3085.5c-22.078-11.977-20.193-29.66 9.2574-86.846 44.789-86.97 131.3-173.52 212.47-212.58 53.96-25.966 77.409-31.458 118.27-27.702l34.04 3.1289-3.2333-13.716c-6.3403-26.896-22.099-148.55-27.326-210.94-6.7219-80.247-6.8529-316.2-0.22604-407.26 15.894-218.41 53.763-406.2 126.89-629.26 79.65-242.94 162.48-412.27 306.75-627.08 166.31-247.63 300.73-387.22 427.16-443.6 59.009-26.31 62.67-28.642 67.78-43.172 7.1207-20.248-6.5907-29.78-61.625-42.844-113.46-26.933-243.19-94.014-320.83-165.89-28.199-26.108-56.337-68.294-49.866-74.765 1.7042-1.7042 130.96-5.0571 287.23-7.4509 284.3-4.3549 356.12-8.5613 462.5-27.091 50.04-8.7152 108.31-23.771 134.74-34.816 26.785-11.191 28.016-9.4292 13.041 18.663-25.49 47.818-130.31 144.58-219.63 202.74-36.375 23.686-113.76 66.381-146.78 80.985-23.632 10.451-26.641 13.451-26.641 26.565 0 21.499 10.119 28.501 46.59 32.237 144.53 14.807 282.71 123.51 402.49 316.61 97.286 156.84 256.49 565.91 326.31 838.45 42.443 165.66 57.008 287.36 56.933 475.66-0.044 112.67-2.9424 165.07-19.945 360.73-4.2676 49.109-4.1585 65.074 0.4831 70.667 3.7155 4.4768 8.102 5.5489 11.532 2.8186 12.916-10.28 70.721-15.463 119.76-10.739 77.809 7.4953 135.86 31.164 249.95 101.91 89.806 55.686 109.01 82.377 109.01 151.54 0 35.318-2.0561 46.182-12.833 67.809-25.096 50.361-104.64 102.24-195.95 127.81-55.872 15.643-165.76 21.092-256.96 12.741-62.055-5.682-165.29-33.287-189.32-50.621-19.256-13.893-29.774-12.701-27.807 3.1531 1.4719 11.861-1.6152 14.138-40.522 29.882-100.35 40.607-297.61 97.538-434.25 125.33-79.967 16.264-195.9 33.83-281.72 42.687-95.583 9.8647-299.59 11.357-388.95 2.8456-95.561-9.1015-262.46-29.584-267.76-32.86-2.6122-1.6144-4.7494-7.263-4.7494-12.552 0-7.9532-3.5087-9.6171-20.28-9.6171-37.052 0-118.06 19.78-192.76 47.065-91.865 33.556-113.93 37.131-227.94 36.931-71.63-0.1258-94.642-1.7765-105.29-7.553z" fill="#96bdc6" opacity=".98" stroke="#000" stroke-linecap="round" stroke-linejoin="round" stroke-width="54.29"/>
</svg>
