<?xml version="1.0" encoding="UTF-8"?>
<!-- Created with Inkscape (http://www.inkscape.org/) -->
<svg width="2094.3" height="3003.1" version="1.1" viewBox="0 0 2094.3 3003.1" xmlns="http://www.w3.org/2000/svg" xmlns:cc="http://creativecommons.org/ns#" xmlns:dc="http://purl.org/dc/elements/1.1/" xmlns:rdf="http://www.w3.org/1999/02/22-rdf-syntax-ns#">
 <metadata>
  <rdf:RDF>
   <cc:Work rdf:about="">
    <dc:format>image/svg+xml</dc:format>
    <dc:type rdf:resource="http://purl.org/dc/dcmitype/StillImage"/>
    <dc:title/>
   </cc:Work>
  </rdf:RDF>
 </metadata>
 <path d="m934.76 2634c-3.9074-0.5604-20.958-2.6753-37.889-4.6998-16.932-2.0244-41.259-5.8126-54.061-8.4183-25.343-5.1581-31.237-4.6034-29.312 2.7585 1.6039 6.1332-3.6932 6.1455-38.94 0.09-63.85-10.97-129.87-36.852-188.98-74.085-76.702-48.314-135.45-115.47-164.28-187.78-23.01-57.723-28.608-125.61-15.79-191.48 11.464-58.91 27.376-102.51 83.5-228.79 61.292-137.91 79.143-190.12 94.317-275.88 9.5206-53.808 8.8171-153.78-1.4948-212.43-1.8684-10.627-3.012-19.707-2.5413-20.177 0.47068-0.4707 6.1694 7.4486 12.664 17.598 66.985 104.69 139.38 273.21 169.99 395.71 8.7914 35.184 12.674 43.08 21.184 43.08 11.832 0 12.53-4.3679 11.279-70.498-2.9945-158.21 21.081-306.84 69.711-430.35 42.066-106.84 126.41-242.07 198.51-318.28 16.741-17.694 38.898-36.725 40.682-34.942 0.5313 0.5313-1.1398 4.5636-3.7136 8.9607-20.228 34.558-43.82 121.98-53.603 198.63-5.2797 41.366-7.1036 121.45-3.7485 164.58 5.0344 64.73 19.83 139.24 38.09 191.82 11.316 32.584 33.744 76.196 48.174 93.678 41.686 50.502 88.299 46.766 146-11.703 24.451-24.774 47.924-55.44 112.6-147.1 60.888-86.293 108.85-149.35 104.47-137.35-0.713 1.9537-5.1711 12.978-9.9071 24.498-24.576 59.779-34.857 138.86-29.696 228.41 3.13 54.313 5.2089 70.248 25.086 192.3 23.683 145.41 29.583 212.66 25.056 285.55-3.084 49.66-7.9724 81.736-19.125 125.49-24.624 96.607-66.866 170.72-134.2 235.45-74.244 71.376-174.28 121.12-283.79 141.13-20.478 3.741-112.78 6.7473-130.24 4.2423zm-13.499 229.08c-192.91-29.63-325.94-76.364-445.85-156.62-241.25-161.48-346.94-389.86-347.07-749.97-0.0558-154.86 5.5062-183.9 86.186-449.94 56.173-185.23 74.88-278.48 86.767-432.51 8.9371-115.81-1.8342-280.62-21.4-327.45-8.2697-19.792-6.8303-20.226 30.723-9.2595 34.878 10.185 106.21 48.07 152.96 81.237 50.731 35.991 149.15 134.36 190.77 190.69 29.941 40.515 76.013 111.97 97.371 151.02 9.0421 16.531 22.268 19.118 33.04 6.4619 12.19-14.321 67.544-105.55 96.993-159.85 89.442-164.92 133.19-319.56 148.72-525.72 8.8568-117.53-0.3382-258.38-21.333-326.8-3.9971-13.024-7.2904-24.666-7.3186-25.871-0.028-1.2045 10.789 8.3862 24.038 21.313 95.754 93.425 227.44 332.03 295.56 535.52 67.22 200.81 95.987 416.72 75.55 567.04-2.9986 22.056-2.7043 22.835 8.0525 21.313 9.013-1.2756 12.99-7.1168 20.637-30.308 13.647-41.39 38.286-81.13 108.45-174.93 78.288-104.65 259.98-296.21 270.74-285.45 1.2269 1.2269-5.2714 14.689-14.441 29.916-86.073 142.94-112.91 419.59-63.913 658.76 23.561 115 48.134 190.57 116.4 357.93 64.177 157.34 76.357 189.53 91.446 241.64 27.556 95.174 36.765 173.48 28.854 245.37-11.773 106.99-54.895 193.25-137.23 274.51-116.64 115.12-307.66 205.36-511.61 241.69-47.956 8.5421-83.268 10.984-185.9 12.856-120.12 2.1906-126.69 2.7733-126.69 11.234 0 5.6759 3.3459 8.9238 9.1929 8.9238 5.056 0 10.51 2.1313 12.12 4.7362 4.296 6.951-18.905 5.2438-101.83-7.4929z" fill="#d1462f" stroke="#000" stroke-linecap="round" stroke-linejoin="round" stroke-width="56.693"/>
</svg>
