<?xml version="1.0" encoding="UTF-8"?>
<!-- Created with Inkscape (http://www.inkscape.org/) -->
<svg width="1885.3" height="2809.8" version="1.1" viewBox="0 0 1885.3 2809.8" xmlns="http://www.w3.org/2000/svg" xmlns:cc="http://creativecommons.org/ns#" xmlns:dc="http://purl.org/dc/elements/1.1/" xmlns:rdf="http://www.w3.org/1999/02/22-rdf-syntax-ns#">
 <metadata>
  <rdf:RDF>
   <cc:Work rdf:about="">
    <dc:format>image/svg+xml</dc:format>
    <dc:type rdf:resource="http://purl.org/dc/dcmitype/StillImage"/>
    <dc:title/>
   </cc:Work>
  </rdf:RDF>
 </metadata>
 <path d="m896.02 2809.2c-2.75-0.1649-12.875-0.7743-22.5-1.3541-27.46-1.6542-70.055-7.0346-115.5-14.589-156.32-25.987-285.3-74.928-401.5-152.35-150.38-100.19-251.92-232.65-304.01-396.54-26.316-82.808-43.184-180.68-51.186-297-1.757-25.539-1.7759-126.95-0.0279-149.5 7.7518-99.982 23.372-173.41 65.199-306.5 29.538-93.984 35.746-114.13 44.383-144 30.589-105.8 48.925-198.77 60.054-304.5 12.572-119.45 10.643-235.15-5.4816-328.78-5.103-29.631-6.7384-35.6-14.068-51.346-4.5075-9.683-5.0465-11.638-6.0915-22.094-1.3208-13.216-0.69197-15.892 4.8836-20.788 4.8644-4.271 10.288-4.0689 24.053 0.8963 5.934 2.1404 15.289 4.5904 20.789 5.4444 12.297 1.9095 30.047 7.7686 50.552 16.687 111.56 48.523 218.88 135.12 308.55 248.98 40.996 52.053 88.405 123.45 105.73 159.22 3.3889 6.9967 6.3866 12.731 6.6616 12.742 0.275 0.012 1.5754-1.8881 2.8898-4.2214 1.3144-2.3333 7.2167-11.667 13.116-20.742 114.11-175.53 172.13-315.68 202.5-489.14 14.919-85.204 21.73-164.84 21.714-253.86-0.016-84.69-6.0961-145.8-20.263-203.65-6.8388-27.926-12.826-42.928-22.215-55.663-2.7608-3.7446-5.6129-8.4696-6.3379-10.5-2.8946-8.1063-1.231-16.004 4.5631-21.662 3.55-3.4665 4.6509-3.9474 9.9064-4.3275 10.089-0.72974 14.957 1.7293 34.619 17.486 34.34 27.519 85.019 86.704 124 144.81 24.95 37.191 52.105 82.66 76.445 128 25.93 48.303 66.523 132.48 85.354 177 57.51 135.96 99.379 286.4 118.15 424.5 7.889 58.052 13.048 123.28 13.761 174 0.1355 9.625 0.483 19.975 0.7723 23l0.5261 5.5 4.9339-8c30.412-49.312 86.994-126.29 136.57-185.8 73.044-87.674 176.94-194.45 210.99-216.84 10.156-6.6781 17.879-8.9619 30.5-9.0199 11.14-0.051 15.329 1.192 19.628 5.8249 3.9362 4.2419 4.8744 6.663 4.8502 12.516-0.029 6.9809-2.1056 11.213-11.422 23.274-20.603 26.673-40.416 67.433-57.458 118.21-22.396 66.725-35.786 137.87-42.693 226.84-2.1638 27.872-2.9954 103.71-1.4822 135.16 5.1447 106.93 24.71 213.07 61.033 331.11 21.529 69.959 43.012 126.78 89.313 236.23 26.065 61.616 41.531 99.741 53.548 132 33.227 89.2 52.216 164.74 58.791 233.88 2.4887 26.173 2.9468 72.25 0.9458 95.117-8.7785 100.31-43.873 183.9-110.43 263-21.924 26.058-60.006 62.254-91.226 86.71-122.07 95.623-305.69 171.87-479.9 199.27-61.554 9.6828-118.5 14.011-184.5 14.023-54.212 0.01-78.974-1.3759-99.215-5.5523-8.9183-1.8401-17.126-3.8329-18.238-4.4284-3.8833-2.0782-3.8345-8.9977 0.078-11.092 2.4475-1.3098 30.928-1.5029 102.88-0.6971 70.191 0.786 106.17-1.1011 167-8.7595 154.88-19.498 319.97-79.149 446.5-161.33 140.52-91.265 222.97-207.08 242.86-341.15 3.9222-26.431 4.9425-41.591 4.9131-73-0.074-79.012-16.639-159.49-54.546-265-10.719-29.834-28.037-72.967-58.22-145-69.403-165.63-97.437-248.1-122.88-361.5-34.862-155.35-39.778-309.76-14.581-458.08 17.645-103.87 52.042-197.68 91.121-248.51 3.2087-4.1736 5.834-7.9443 5.834-8.3791 0-1.4204-12.251 0.5559-16.426 2.6498-17.447 8.7496-71.286 60.126-136.08 129.86-40.62 43.713-68.27 75.706-104.11 120.46-57.34 71.599-127.18 175.49-132.1 196.5-0.8368 3.575-2.5292 9.875-3.7608 14-1.2317 4.125-3.0617 11.55-4.0667 16.5-1.5193 7.4828-2.3687 9.5479-5.0387 12.25-2.5254 2.5557-4.0397 3.25-7.0889 3.25-8.0553 0-11.765-5.5591-11.551-17.309 0.1762-9.653 2.0856-17.298 7.4036-29.641 4.0115-9.3112 4.1377-9.9502 5.0471-25.55 1.3987-23.995-0.1156-83.184-3.2619-127.5-10.009-140.98-42.614-289.04-96.062-436.24-40.55-111.67-116.7-265.13-179.26-361.26-37.995-58.38-77.34-107.88-112.95-142.1-12.496-12.009-26.495-23.959-25.571-21.829 0.2214 0.51072 2.4914 5.2036 5.0443 10.429 14.873 30.44 27.406 89.713 33.303 157.5 5.0829 58.428 4.4551 153.32-1.4687 222-13.39 155.24-45.169 285.27-99.674 407.86-28.344 63.748-65.754 132.25-110.66 202.64-8.2462 12.925-18.782 29.575-23.412 37-4.6303 7.425-10.235 15.373-12.455 17.662-4.8825 5.0345-11.102 7.051-16.378 5.31-4.8449-1.599-10.615-8.7153-14.344-17.69-11.606-27.933-52.011-92.071-90.577-143.78-46.558-62.426-97.983-117.41-151.99-162.5-57.142-47.709-131.05-92.088-186.64-112.06-13.363-4.8024-19.787-6.4554-32.365-8.3289-5.5-0.8192-11.673-2.191-13.718-3.0484-2.0448-0.8574-3.9573-1.5589-4.25-1.5589-1.5418 0-0.0526 5.3351 3.8904 13.937 10.157 22.158 17.257 58.907 23.004 119.06 10.006 104.74 5.88 222.99-12.021 344.5-16.158 109.68-35.532 187.73-86.753 349.5-22.54 71.185-32.091 103.25-41.254 138.5-18.207 70.042-27.304 124.88-32.595 196.5-1.6818 22.763-1.6821 112.74-4.4e-4 138.5 8.0147 122.78 25.422 221.55 54.206 307.56 52.349 156.44 149.65 280.59 295.37 376.89 107.89 71.3 228.99 117.87 376.12 144.64 28.951 5.2667 65.94 10.862 98.5 14.899 6.875 0.8524 21.275 2.882 32 4.5102s25.496 3.8292 32.824 4.8911c14.781 2.142 17.176 3.3422 17.176 8.607 0 5.6302-2.1328 6.5241-15.079 6.3198-6.2817-0.099-13.671-0.3153-16.421-0.4803zm-36.5-234.38c-29-1.108-60.697-4.7961-77.004-8.9596-7.4752-1.9086-8.4327-1.9266-26.105-0.4901-35.191 2.8604-63.461 1.3185-98.891-5.3939-71.656-13.576-144.92-44.939-207.03-88.624-97.291-68.431-155.98-155.43-172.36-255.49-11.912-72.801-1.5408-146.89 33.591-239.97 12.099-32.054 21.672-54.309 58.224-135.36 60.725-134.65 83.436-206.72 93.014-295.18 7.1502-66.036 2.5743-144.88-11.897-205-4.2028-17.46-7.0204-24.987-14.022-37.462-7.3637-13.12-7.4591-18.951-0.3703-22.616 5.7592-2.9781 9.0429-1.3845 19.86 9.6384 15.622 15.92 30.767 36.113 51.107 68.144 57.154 90.003 109.65 204.25 151.53 329.8l7.8394 23.5 0.69141-21.5c6.2492-194.32 42.209-347.11 114-484.36 47.287-90.403 111.98-183.4 167.3-240.49 23.242-23.988 41.763-36.149 55.053-36.149 1.8222 0 8.3493-1.579 14.505-3.5089 9.4779-2.9717 11.749-3.3583 14.832-2.5248 5.2427 1.4174 7.9883 3.669 8.9366 7.3284 1.4458 5.5795 0.1911 7.8292-10.204 18.296-11.271 11.349-16.896 19.836-24.517 36.996-35.043 78.898-54.97 208.32-48.948 317.91 6.5358 118.94 39.736 237.64 81.388 290.98 21.278 27.249 43.328 35.04 68.408 24.171 34.079-14.768 71.304-56.487 145.58-163.15 41.256-59.248 48.856-69.938 69.314-97.5 31.396-42.298 57.729-72.619 69.329-79.828 18.779-11.671 23.786-14.172 28.378-14.172 5.1362 0 9.9034 2.0591 11.448 4.9446 0.5663 1.0582 1.0296 4.2506 1.0296 7.0944 0 6.5014-2.5625 11.744-11.791 24.121-8.8349 11.85-14.828 22.357-21.025 36.862-15.635 36.596-25.637 79.243-30.836 131.48-2.0803 20.903-2.3682 84.141-0.4871 107 3.6483 44.336 9.1548 86.003 19.228 145.5 14.755 87.151 17.122 101.65 20.865 127.77 4.0416 28.215 7.9054 62.899 10.218 91.725 1.7289 21.55 1.747 98.987 0.028 119.5-7.1293 85.072-25.293 155.45-57.222 221.73-46.982 97.522-117.8 170.11-219.57 225.07-90.557 48.899-186.1 71.878-283.41 68.16zm70.5-23.434c63.167-6.4663 123.83-24.364 185.12-54.618 76.307-37.667 134.95-84.977 180.91-145.94 57.574-76.374 93.039-175.29 102.44-285.72 0.9624-11.3 2.6729-52.374 2.7168-65.24 0.035-10.258-1.6681-51.429-2.7095-65.5-1.6505-22.301-4.7798-50.988-8.5632-78.5-3.6932-26.856-4.9104-34.421-19.311-120-12.431-73.877-16.736-105.26-20.776-151.5-2.1851-25.004-2.5014-94.874-0.5205-115 6.2507-63.509 19.241-114.17 39.422-153.75 3.4365-6.7391 6.4209-12.703 6.632-13.253 0.888-2.3139-9.8046 8.8797-19.358 20.265-21.171 25.231-41.287 52.585-91.297 124.15-72.868 104.27-96.517 134.42-128.13 163.36-49.899 45.675-94.358 44.867-132.12-2.4024-39.387-49.306-72.903-155.73-83.412-264.87-5.0431-52.373-5.0383-110.93 0.014-163.5 8.5108-88.564 33.364-181.89 60.027-225.39l2.6929-4.3942-2.8927 0.7031c-15.741 3.8262-53.969 43.454-96.589 100.12-73.763 98.082-129.63 201.79-162.11 300.96-32.152 98.146-49.957 209.74-53.687 336.5-1.0816 36.759-0.71496 55.068 1.6587 82.835 0.86204 10.084 1.271 20.188 0.9087 22.454-2.2122 13.834-14.573 16.507-21.79 4.7113-2.7952-4.5683-4.4854-10.577-9.282-33-6.9532-32.504-28.645-98.808-51.674-157.95-32.031-82.255-66.774-154.33-105.6-219.05-11.04-18.406-28.563-45.472-30.025-46.375-0.47303-0.2924 0.17836 4.7349 1.4475 11.172 7.1972 36.502 11.293 75.832 12.048 115.7 1.1438 60.366-4.827 112.37-19.689 171.5-15.04 59.834-34.448 111.39-80.002 212.5-52.34 116.18-68.903 159.25-81.453 211.81-28.031 117.4-4.7789 222.65 68.53 310.19 31.797 37.968 68.539 69.191 114.42 97.228 65.911 40.281 136.33 65.232 206.75 73.251 21.624 2.4628 20.605 2.4638 17.942-0.018-2.5775-2.4013-2.8876-7.1191-0.61713-9.3896 2.2575-2.2575 6.3002-1.9611 18.846 1.3815 6.0956 1.624 16.933 3.8778 24.083 5.0082 19.545 3.0902 66.148 8.7696 82 9.9931 7.7 0.5944 15.8 1.2565 18 1.4715 8.8082 0.8606 60.925-0.4608 75-1.9016z"/>
</svg>
