<?xml version="1.0" encoding="UTF-8"?>
<!-- Created with Inkscape (http://www.inkscape.org/) -->
<svg width="2028.5" height="2919.5" version="1.1" viewBox="0 0 2028.5 2919.5" xmlns="http://www.w3.org/2000/svg" xmlns:cc="http://creativecommons.org/ns#" xmlns:dc="http://purl.org/dc/elements/1.1/" xmlns:rdf="http://www.w3.org/1999/02/22-rdf-syntax-ns#">
 <metadata>
  <rdf:RDF>
   <cc:Work rdf:about="">
    <dc:format>image/svg+xml</dc:format>
    <dc:type rdf:resource="http://purl.org/dc/dcmitype/StillImage"/>
    <dc:title/>
   </cc:Work>
  </rdf:RDF>
 </metadata>
 <path d="m1445.8 2918.6c0-0.4858-0.8946-1.1173-1.988-1.4032-1.0933-0.2859-2.489-1.8009-3.1013-3.3666-2.051-5.2439-0.9524-26.728 3.0602-59.847 4.2576-35.14 6.0229-50.328 6.6546-57.25 0.364-3.9875 1.0471-7.25 1.5181-7.25s0.8564-3.6 0.8564-8c0-4.6667 0.4167-8 1-8 0.5882 0 1-3.5 1-8.5s0.4118-8.5 1-8.5 1-3.5 1-8.5c0-4.675 0.3807-8.5 0.846-8.5 0.7036 0 1.5764-10.258 2.5524-30 0.095-1.925 0.4453-3.95 0.778-4.5s0.4665-2.6875 0.2973-4.75 0-3.75 0.3671-3.75c0.3712 0 0.7457-2.5875 0.8323-5.75 0.087-3.1625 0.8691-12.725 1.7389-21.25s1.5829-17.412 1.5847-19.75c0-2.3375 0.4533-4.25 1.0033-4.25 0.6237 0 1-5.8333 1-15.5 0-8.525 0.3785-15.5 0.8412-15.5 0.4626 0 1.1442-12.262 1.5147-27.25 0.3704-14.988 1.0919-36.25 1.6032-47.25 0.5114-11 1.2481-32.038 1.6371-46.75s1.089-26.75 1.5555-26.75c0.4666 0 0.8483-40.725 0.8483-90.5s-0.3817-90.5-0.8483-90.5-1.152-6.4125-1.5232-14.25-1.3339-21.675-2.1394-30.75c-0.8054-9.075-1.47-19.088-1.4768-22.25-0.01-3.1625-0.4623-5.75-1.0123-5.75-0.5875 0-1-3.4722-1-8.4167 0-4.6291-0.4014-8.5666-0.8919-8.75-1.0968-0.4099-4.1081-17.6-4.1081-23.45 0-2.3456-0.4807-4.5618-1.0682-4.9249s-0.8546-1.2167-0.5936-1.8969-0.1512-3.8972-0.9162-7.1489c-0.7649-3.2516-1.3978-7.3746-1.4064-9.1621-0.01-1.7875-0.4656-3.25-1.0156-3.25s-1-2.025-1-4.5-0.45-4.5-1-4.5-1-1.35-1-3-0.45-3-1-3-1-1.575-1-3.5-0.45-3.5-1-3.5-0.9978-0.7875-0.9951-1.75c0-0.9625-0.7415-4-1.654-6.75-7.2904-21.973-14.39-40.879-15.521-41.333-0.4562-0.1834-0.8295-1.4209-0.8295-2.75 0-1.3292-0.45-2.4167-1-2.4167s-1-1.125-1-2.5-0.45-2.5-1-2.5-1-0.9-1-2-0.3375-2.0003-0.75-2.0006-2.1-2.9194-3.75-6.4868c-1.65-3.5675-3.5625-6.4922-4.25-6.4994-0.6875-0.01-1.25-1.1382-1.25-2.5132s-0.4197-2.5-0.9326-2.5-1.2473-0.9915-1.6319-2.2034c-0.3847-1.2118-1.315-2.819-2.0674-3.5714-0.7525-0.7524-1.3681-2.0109-1.3681-2.7966s-0.45-1.4286-1-1.4286-1-1.125-1-2.5c0-1.5413-0.5679-2.5-1.4809-2.5-0.8146 0-1.7634-1.125-2.1085-2.5s-1.0286-2.5-1.519-2.5-0.8916-0.675-0.8916-1.5-0.45-1.5-1-1.5-1-0.9-1-2-0.4596-2-1.0214-2-1.5639-1.2375-2.2269-2.75-2.0034-3.4778-2.9786-4.3673-1.7731-1.9617-1.7731-2.3827-0.8356-1.4932-1.857-2.3827c-1.0213-0.8895-2.1607-2.5796-2.532-3.7558-0.639-2.0243-3.1906-5.3336-7.6307-9.8967-1.0891-1.1193-1.9803-2.4736-1.9803-3.0094 0-0.5359-0.9-1.5364-2-2.2233-1.1-0.687-2-1.812-2-2.5 0-0.6881-0.9-1.8131-2-2.5-1.1-0.687-2-1.812-2-2.5 0-0.6881-0.9-1.8131-2-2.5-1.1-0.687-2-1.9202-2-2.7406 0-0.8203-0.4768-1.4915-1.0595-1.4915-0.5828 0-2.7203-1.8268-4.75-4.0594-7.9407-8.7346-10.194-10.941-11.173-10.941-0.5598 0-1.0177-0.3833-1.0177-0.8517s-1.35-2.2643-3-3.9909-3-3.5933-3-4.1483-0.7071-1.0091-1.5714-1.0091c-1.796 0-4.4286-2.3354-4.4286-3.9286 0-0.5893-0.9-1.0714-2-1.0714s-2-0.3768-2-0.8372c0-0.9016-7.5911-9.1628-8.4195-9.1628-0.2749 0-2.288-1.6875-4.4736-3.75s-5.3758-4.875-7.0893-6.25-3.7363-3.0625-4.4951-3.75-2.0868-1.25-2.9511-1.25-1.5714-0.591-1.5714-1.3134c0-0.7223-1.575-1.9313-3.5-2.6866s-3.5-1.7277-3.5-2.161c0-0.4332-1.3316-1.4762-2.959-2.3178-1.6275-0.8416-4.0821-2.6532-5.4546-4.0257s-3.4159-2.4955-4.5409-2.4955-2.0455-0.6028-2.0455-1.3395c0-1.3998-4.0434-3.6605-6.5471-3.6605-0.7991 0-1.4564-0.5625-1.4607-1.25-0.01-1.1602-4.3146-3.75-6.237-3.75-0.4654 0-1.9711-1.125-3.3461-2.5s-3.175-2.5-4-2.5-2.625-1.125-4-2.5-3.6046-2.5-4.9546-2.5-2.4545-0.45-2.4545-1-0.4821-1-1.0714-1-1.7465-0.675-2.5715-1.5-2.3678-1.5-3.4285-1.5-1.9286-0.45-1.9286-1-0.7071-1-1.5714-1-2.1987-0.5625-2.9653-1.25c-3.3389-2.9943-4.4458-3.75-5.4925-3.75-0.6125 0-1.7887-0.675-2.6137-1.5s-2.8178-1.5-4.4285-1.5-2.9286-0.45-2.9286-1-0.7071-1-1.5714-1-2.1987-0.5625-2.9653-1.25c-3.6174-3.244-4.5513-3.75-6.9211-3.75-1.3982 0-2.5422-0.45-2.5422-1s-0.6891-1-1.5314-1c-0.8422 0-1.7904-0.675-2.107-1.5-0.3584-0.9339-1.883-1.5-4.04-1.5-1.9055 0-4.0917-0.5625-4.8583-1.25-3.6174-3.244-4.5513-3.75-6.9211-3.75-1.3982 0-2.5422-0.4012-2.5422-0.8916s-1.125-1.1739-2.5-1.519-2.5-1.0689-2.5-1.6085c0-0.5395-1.8-0.9809-4-0.9809s-4-0.45-4-1-0.8679-1-1.9286-1-2.6035-0.675-3.4285-1.5-3.1072-1.5-5.0715-1.5-3.5714-0.45-3.5714-1-0.8679-1-1.9286-1-2.6035-0.675-3.4285-1.5c-0.9744-0.9744-3.4524-1.5-7.0715-1.5-3.0643 0-5.5714-0.4327-5.5714-0.9615 0-1.0518-5.2837-2.6176-11.384-3.3735-2.1364-0.2648-4.1614-0.8988-4.5-1.409-0.7819-1.1778-13.068-4.256-16.988-4.256-1.6286 0-3.1111-0.4125-3.2945-0.9166-0.3859-1.0612-14.294-4.0834-18.791-4.0834-1.6732 0-3.0422-0.3693-3.0422-0.8207 0-1.0501-13.406-3.4003-22.498-3.9442-3.8487-0.2303-7.2584-0.8404-7.5769-1.3559-0.3186-0.5155-3.0197-1.131-6.0023-1.3678-2.9827-0.2368-7.8981-0.8659-10.923-1.398s-10.338-1.0002-16.25-1.0404c-6.4513-0.044-10.75-0.4729-10.75-1.073 0-0.6489-13.167-1-37.5-1s-37.5 0.3511-37.5 1c0 0.595-3.7461 0.9977-9.25 0.9942-10.06-0.01-34.045 2.9093-34.583 4.2039-0.1834 0.4411-1.9445 0.8019-3.9138 0.8019-4.977 0-21.253 3.2118-21.253 4.1939 0 0.4434-1.37 0.8061-3.0445 0.8061-4.1801 0-15.956 3.0418-15.956 4.1216 0 0.4831-1.433 0.8784-3.1844 0.8784-3.935 0-14.816 2.976-14.816 4.0523 0 0.4338-1.4625 1.0669-3.25 1.4068-6.8402 1.3008-11.75 2.8347-11.75 3.6709 0 0.4785-1.6071 0.87-3.5714 0.87s-4.1987 0.5625-4.9653 1.25c-3.663 3.2849-4.5922 3.75-7.4925 3.75-1.7125 0-3.7409 0.5625-4.5075 1.25-3.663 3.2849-4.5922 3.75-7.4925 3.75-1.7125 0-3.7409 0.5625-4.5075 1.25-3.5689 3.2005-4.5203 3.75-6.4925 3.75-1.1625 0-2.7409 0.5625-3.5075 1.25-3.9505 3.5427-4.303 3.7238-4.8108 2.4707-0.38133-0.9411-0.51271-0.9344-0.57357 0.029-0.0434 0.6875-0.78609 1.25-1.6504 1.25-0.86428 0-2.1987 0.5625-2.9653 1.25-3.5689 3.2005-4.5202 3.75-6.4925 3.75-1.1625 0-2.7409 0.5625-3.5075 1.25-3.3091 2.9675-4.4402 3.75-5.4211 3.75-0.57322 0-1.0422 0.45-1.0422 1s-0.91412 1-2.0314 1c-1.1173 0-2.2904 0.675-2.607 1.5-0.31659 0.825-1.4275 1.5-2.4686 1.5-1.0412 0-1.893 0.4012-1.893 0.8916s-1.125 1.1739-2.5 1.519-2.5 1.0689-2.5 1.6085c0 0.5395-0.675 0.9809-1.5 0.9809s-1.5 0.45-1.5 1-0.91412 1-2.0314 1c-1.1173 0-2.2904 0.675-2.607 1.5-0.31659 0.825-1.2025 1.5-1.9686 1.5-0.76615 0-1.393 0.4012-1.393 0.8916s-1.125 1.1739-2.5 1.519-2.5 1.0689-2.5 1.6085c0 0.5395-0.675 0.9809-1.5 0.9809s-1.5 0.4012-1.5 0.8916-1.125 1.1739-2.5 1.519-2.5 1.0689-2.5 1.6085c0 0.5395-0.675 0.9809-1.5 0.9809s-1.5 0.45-1.5 1-0.68912 1-1.5314 1c-0.84227 0-1.7904 0.675-2.107 1.5-0.31659 0.825-0.99646 1.5-1.5108 1.5-0.99851 0-2.572 1.151-6.487 4.7455-1.3452 1.235-3.7773 2.9341-5.4048 3.7757s-2.959 1.9383-2.959 2.4371-0.80716 1.1631-1.7937 1.4762c-0.98653 0.3131-3.4218 2.031-5.4118 3.8174-1.99 1.7865-5.0238 4.3731-6.7418 5.7481s-4.4417 3.625-6.0526 5-4.2815 3.625-5.9346 5c-1.6531 1.375-3.0191 3.0625-3.0355 3.75-0.0164 0.6875-0.73705 1.25-1.6013 1.25-1.6802 0-4.4286 2.3011-4.4286 3.7078 0 0.4679-0.94974 1.5125-2.1105 2.3214-1.1608 0.809-3.361 2.5958-4.8895 3.9708s-3.7287 3.1618-4.8895 3.9708c-1.1608 0.8089-2.1105 1.8658-2.1105 2.3487 0 0.9425-4.4365 5.245-7.8895 7.6513-1.1608 0.8089-2.1105 1.8658-2.1105 2.3487 0 0.9425-4.4365 5.245-7.8895 7.6513-1.1608 0.8089-2.1105 1.947-2.1105 2.5292s-0.9 1.7072-2 2.5-2 1.9178-2 2.5-0.9 1.7072-2 2.5-2 1.9948-2 2.6711c0 0.6762-0.62437 1.5894-1.3875 2.0292-0.76312 0.4398-3.5631 3.4997-6.2223 6.7997-2.6591 3.3-5.2973 6.4912-5.8625 7.0916-0.56526 0.6004-2.1528 2.5729-3.5278 4.3833-1.375 1.8105-3.175 4.0717-4 5.0251s-2.625 3.2146-4 5.0251c-1.375 1.8104-3.0031 3.8038-3.6181 4.4299s-1.4328 2.1298-1.8174 3.3416c-0.38462 1.2119-1.344 2.2034-2.1319 2.2034-0.78793 0-1.4326 0.6061-1.4326 1.347 0 0.7408-0.7875 2.2779-1.75 3.4158-4.6364 5.481-5.25 6.3282-5.25 7.2486 0 0.5437-0.34767 0.9886-0.7726 0.9886-0.42492 0-1.6208 1.575-2.6575 3.5s-2.264 3.5-2.7274 3.5-0.84253 0.6061-0.84253 1.347c0 0.7408-0.9 2.3847-2 3.653s-2 2.9122-2 3.653c0 0.7409-0.41968 1.347-0.93261 1.347-0.51294 0-1.2486 1.0125-1.6348 2.25-0.3862 1.2375-1.0472 2.475-1.469 2.75-1.3511 0.881-12.964 21.109-12.964 22.582 0 0.7802-0.45 1.4185-1 1.4185s-1 0.675-1 1.5-0.45 1.5-1 1.5-1 1.125-1 2.5-0.45 2.5-1 2.5-1 0.675-1 1.5-0.45 1.5-1 1.5-1 0.9-1 2-0.45 2-1 2-1 0.675-1 1.5-0.45 1.5-1 1.5-1 1.125-1 2.5-0.45 2.5-1 2.5-1 0.675-1 1.5-0.45 1.5-1 1.5-1 0.9-1 2-0.45 2-1 2-1 1.125-1 2.5-0.45 2.5-1 2.5-1 0.675-1 1.5-0.45 1.5-1 1.5-1 1.125-1 2.5-0.45 2.5-1 2.5-1 1.125-1 2.5-0.45 2.5-1 2.5-1 0.675-1 1.5-0.45 1.5-1 1.5-1 1.125-1 2.5-0.45 2.5-1 2.5-1 0.9-1 2-0.45 2-1 2-1 1.125-1 2.5-0.45 2.5-1 2.5-1 1.125-1 2.5-0.45 2.5-1 2.5-1 1.125-1 2.5-0.45 2.5-1 2.5-1 1.125-1 2.5-0.45 2.5-1 2.5-1 1.125-1 2.5-0.45 2.5-1 2.5-1 1.125-1 2.5-0.45 2.5-1 2.5-1 1.125-1 2.5-0.45 2.5-1 2.5-1 1.125-1 2.5-0.45 2.5-1 2.5-1 1.125-1 2.5-0.45 2.5-1 2.5-1 1.125-1 2.5-0.45 2.5-1 2.5-1 1.125-1 2.5-0.49814 2.5-1.107 2.5c-0.60884 0-0.83875 0.699-0.51089 1.5534 0.32785 0.8544-1.1669 6.8169-3.3216 13.25-4.1102 12.272-11.876 37.828-14.342 47.197-0.79616 3.025-3.0975 11.8-5.114 19.5s-4.966 18.725-6.5543 24.5c-1.5883 5.775-3.8106 14.55-4.9386 19.5s-3.2275 13.946-4.6658 19.992c-6.1639 25.908-52.075 248.26-57.062 276.36-5.4598 30.76-7.3838 43.093-7.3838 47.33 0 2.6499-0.45 4.818-1 4.818-0.55556 0-1 2.6667-1 6s-0.44444 6-1 6c-0.58333 0-1 3.3333-1 8s-0.41667 8-1 8c-0.58824 0-1 3.5-1 8.5s-0.41176 8.5-1 8.5c-0.61333 0-1 4.8333-1 12.5s-0.38667 12.5-1 12.5c-0.63704 0-1 8.1667-1 22.5s-0.36296 22.5-1 22.5c-0.55 0-1 1.9947-1 4.4326 0 3.5544-0.39627 4.5584-2 5.0674-1.8528 0.5881-2 1.513-2 12.567 0 7.2884 0.3892 11.933 1 11.933 0.59367 0 1 3.7109 1 9.1327 0 8.1042-0.24247 9.343-2.153 11-2.6497 2.2981-3.8219 2.3238-8.3131 0.1821l-3.5339-1.6849v-7.8148c0-4.5432-0.41864-7.8148-1-7.8148-0.61905 0-1-5.3333-1-14s-0.38095-14-1-14c-0.62963 0-1-6.6667-1-18s-0.37037-18-1-18c-1.6122 0-1.3626-422.69 0.25-423.34 0.94376-0.383 0.88251-0.7895-0.25-1.6595s-1.1938-1.2765-0.25-1.6595c0.96271-0.3906 1.25-7.7277 1.25-31.924 0-20.278 0.35455-31.417 1-31.417 0.62857 0 1-6.5 1-17.5s0.37143-17.5 1-17.5c0.62069 0 1-5.5 1-14.5s0.37931-14.5 1-14.5c0.58333 0 1-3.3333 1-8s0.41667-8 1-8c0.60606 0 1-4.3333 1-11s0.39394-11 1-11c0.59649 0 1-3.8333 1-9.5s0.40351-9.5 1-9.5c0.59259 0 1-3.6667 1-9s0.40741-9 1-9c0.58824 0 1-3.5 1-8.5s0.41176-8.5 1-8.5c0.57778 0 1-3.1667 1-7.5s0.42222-7.5 1-7.5 1-3.1667 1-7.5 0.42222-7.5 1-7.5 1-3.1667 1-7.5 0.42222-7.5 1-7.5c0.5641 0 1-2.8333 1-6.5s0.4359-6.5 1-6.5c0.57143 0 1-3 1-7s0.42857-7 1-7c0.5641 0 1-2.8333 1-6.5s0.4359-6.5 1-6.5 1-2.8333 1-6.5c0-3.575 0.38316-6.5 0.85147-6.5s1.1322-3.7125 1.4754-8.25c0.51888-6.8612 10.69-69.438 18.652-114.75 1.1113-6.325 2.9531-16.9 4.0929-23.5s3.3501-18.75 4.9118-27c1.5617-8.25 4.2668-22.65 6.0112-32 4.7025-25.205 24.972-127.37 26.189-132 0.57816-2.2 2.5539-11.2 4.3905-20 3.2343-15.497 6.256-29.407 9.9922-46 0.99078-4.4 2.0912-8.225 2.4454-8.5s1.6193-5.225 2.8113-11c3.9706-19.236 9.3634-42.14 17.07-72.5 1.117-4.4 2.9199-11.6 4.0066-16s2.8985-11.6 4.0263-16c1.1278-4.4 2.0558-9.2375 2.0623-10.75 6e-3 -1.5125 0.46181-2.75 1.0118-2.75s1-1.8 1-4 0.45-4 1-4 1-1.125 1-2.5 0.45-2.5 1-2.5 1-1.575 1-3.5 0.45-3.5 1-3.5 1-1.575 1-3.5 0.45-3.5 1-3.5 1-1.8 1-4 0.45-4 1-4 1-1.575 1-3.5 0.45-3.5 1-3.5 1-1.8 1-4 0.45-4 1-4 1-1.35 1-3 0.45-3 1-3 1-1.35 1-3 0.45-3 1-3 1-1.8 1-4 0.45-4 1-4 1-1.575 1-3.5 0.45-3.5 1-3.5 1-1.125 1-2.5 0.45-2.5 1-2.5 1-1.8 1-4 0.45-4 1-4 1-1.575 1-3.5 0.45-3.5 1-3.5 1-1.35 1-3 0.45-3 1-3 1-1.35 1-3 0.45-3 1-3 1-1.8 1-4 0.45-4 1-4 1-1.125 1-2.5 0.45-2.5 1-2.5 1-1.575 1-3.5 0.45-3.5 1-3.5 1-1.125 1-2.5 0.45-2.5 1-2.5 1-1.35 1-3 0.45-3 1-3 1-1.575 1-3.5 0.45-3.5 1-3.5 1-1.575 1-3.5 0.45-3.5 1-3.5 1-1.125 1-2.5 0.45-2.5 1-2.5 1-1.125 1-2.5 0.44496-2.5 0.9888-2.5 0.92643-1.0125 0.85021-2.25c-0.0762-1.2375 0.86924-4.95 2.101-8.25 1.2318-3.3 2.6272-7.575 3.1009-9.5 0.47369-1.925 2.2333-6.8244 3.9102-10.888 1.6769-4.0632 3.0489-8.0058 3.0489-8.7614 0-0.7557 2.025-6.4117 4.5-12.569 2.475-6.1573 4.5-12.002 4.5-12.989s0.45-1.7934 1-1.7934 1-0.8734 1-1.941c0-1.0675 0.45-2.2191 1-2.559s1-1.4976 1-2.5726 0.41722-2.7359 0.92716-3.691c0.50994-0.955 3.0233-7.1364 5.5852-13.736 2.5619-6.6 5.3406-13.575 6.1748-15.5 1.9454-4.4891 2.8171-6.6832 4.3703-11 1.3363-3.7139 5.5194-13.466 6.8774-16.033 0.44597-0.8431 1.122-2.9495 1.5023-4.6809 0.38029-1.7315 1.3375-3.6843 2.1272-4.3396 0.78965-0.6554 1.4357-2.1715 1.4357-3.3691 0-1.1977 0.39083-2.6051 0.86851-3.1276 0.47767-0.5225 1.6921-3.2 2.6987-5.95 1.0066-2.75 2.1301-5.225 2.4967-5.5s0.98253-1.5125 1.3687-2.75c0.67914-2.1762 0.48679-2.25-5.8652-2.25-3.6121 0-6.5674-0.386-6.5674-0.8577s-5.0625-1.1751-11.25-1.5632c-6.1875-0.388-11.4-1.1271-11.583-1.6423-0.18334-0.5152-3.2208-0.9368-6.75-0.9368-5.037 0-6.4167-0.3225-6.4167-1.5 0-1.0476-1.0556-1.5-3.5-1.5-1.925 0-3.5-0.45-3.5-1s-2.25-1-5-1c-3.3793 0-5-0.4123-5-1.2719 0-0.7743-2.5805-1.7615-6.5943-2.5229-3.6269-0.688-7.242-1.8987-8.0337-2.6904-1.3771-1.3771-7.4932-3.4975-10.122-3.5092-0.6875 0-1.25-0.3723-1.25-0.8204 0-0.8798-6.4015-4.1852-8.1054-4.1852-0.57062 0-1.6647-0.5625-2.4314-1.25-3.3389-2.9943-4.4458-3.75-5.4925-3.75-0.6125 0-1.7409-0.5625-2.5075-1.25-3.559-3.1917-4.515-3.75-6.4211-3.75-1.1486 0-2.0422-0.6563-2.0422-1.5 0-0.825-0.675-1.5-1.5-1.5s-1.5-0.45-1.5-1-0.9-1-2-1-2-0.5917-2-1.3148-1.6726-2.1124-3.717-3.0873c-2.0443-0.9749-4.3199-2.6332-5.0567-3.6852s-1.9988-1.9127-2.8044-1.9127c-0.80561 0-1.9773-1.125-2.6038-2.5-0.6265-1.375-1.7684-2.5-2.5376-2.5-0.76918 0-1.1199-0.4508-0.77931-1.0019 0.34055-0.551-0.42039-1.4078-1.691-1.9039-3.1884-1.2451-8.8102-7.0211-8.8102-9.052 0-0.5732-0.46822-1.0422-1.0405-1.0422-1.5664 0-6.9595-4.2215-6.9595-5.4475 0-0.5893-0.9-1.6335-2-2.3204-1.1-0.687-2-1.6771-2-2.2002s-1.8-2.7875-4-5.0319-4.0006-4.4001-4.0012-4.7904-1.0132-1.9093-2.25-3.3756c-4.791-5.6798-5.3987-6.4681-6.0739-7.8783-0.38332-0.8006-1.5907-2.8057-2.683-4.4557s-2.4814-4.2375-3.0868-5.75c-0.60544-1.5125-1.5057-2.75-2.0006-2.75-1.018 0-5.9045-9.6723-5.9045-11.687 0-0.722-0.38886-1.3128-0.86414-1.3128s-1.6619-2.1375-2.6369-4.75c-0.975-2.6125-2.3089-5.425-2.9642-6.25-1.0964-1.3802-6.6753-12.813-8.5399-17.5-0.43757-1.1-1.75-4.153-2.9166-6.7846-2.8223-6.3664-7.0783-19.5-7.0783-21.843 0-1.0298-0.45-1.8724-1-1.8724s-1-1.35-1-3-0.45-3-1-3-1-1.575-1-3.5-0.45-3.5-1-3.5-1-1.575-1-3.5-0.45-3.5-1-3.5-1-1.8-1-4-0.45-4-1-4-1-1.575-1-3.5-0.45-3.5-1-3.5-1-1.35-1-3-0.45-3-1-3-1-2.475-1-5.5-0.45-5.5-1-5.5-1-2.025-1-4.5-0.45-4.5-1-4.5-1-2.25-1-5-0.45-5-1-5-1-2.475-1-5.5-0.45-5.5-1-5.5-1-2.475-1-5.5-0.45-5.5-1-5.5-1-2.025-1-4.5-0.45-4.5-1-4.5-1-2.475-1-5.5-0.45-5.5-1-5.5c-0.57143 0-1-3-1-7s-0.42857-7-1-7c-0.57778 0-1-3.1667-1-7.5s-0.42222-7.5-1-7.5c-0.5641 0-1-2.8333-1-6.5s-0.4359-6.5-1-6.5c-0.55 0-1-2.4214-1-5.3808 0-2.9595-0.91839-11.397-2.0409-18.75-1.1225-7.3531-2.6588-17.419-3.4139-22.369-5.0704-33.235-15.862-79.644-20.634-88.736-0.50124-0.9551-0.91134-2.616-0.91134-3.691s-0.39089-2.1962-0.86865-2.4914c-0.47775-0.2953-1.1672-2.4039-1.5321-4.6858-0.36489-2.2819-1.324-5.092-2.1314-6.2447-0.80735-1.1526-1.4707-2.7831-1.4741-3.6232-3e-3 -0.8401-0.67839-2.8164-1.5-4.3918s-1.4938-3.4034-1.4938-4.0622-0.9-3.0606-2-5.3374c-1.1-2.2767-2-4.5373-2-5.0235 0-0.4863-2.475-5.7772-5.5-11.758s-5.5-11.225-5.5-11.655c0-1.585-4.4011-10.8-5.1581-10.8-0.43081 0-1.9154-2.475-3.2991-5.5-1.3837-3.025-2.862-5.5-3.2852-5.5-0.42317 0-1.8016-2.25-3.0632-5s-2.7214-5-3.2442-5c-0.52269 0-0.95035-0.59015-0.95035-1.3114s-0.81022-2.1838-1.8005-3.25-2.1012-2.7261-2.4686-3.6886c-0.36747-0.9625-1.1322-1.75-1.6995-1.75-0.56726 0-1.0314-0.675-1.0314-1.5s-0.7875-2.3012-1.75-3.2804-2.4221-3.1167-3.2436-4.75-2.509-3.884-3.75-5.0015-2.2564-2.5319-2.2564-3.143c0-0.61114-0.675-1.3702-1.5-1.6868-0.825-0.31658-1.5-1.2913-1.5-2.166s-0.45-1.3123-1-0.97237-1-0.0354-1-0.83399c0-0.79862-0.675-1.711-1.5-2.0276-0.825-0.31658-1.5-1.2344-1.5-2.0396s-0.89895-1.7493-1.9977-2.098c-1.0987-0.34872-2.2684-1.7129-2.5994-3.0316-0.33096-1.3186-1.457-2.669-2.5023-3.0007-1.0453-0.33178-1.9006-1.0826-1.9006-1.6685 0-1.205-3.8594-4.7999-5.153-4.7999-0.46584 0-0.84699-0.64468-0.84699-1.4326 0-0.78794-0.9-1.7183-2-2.0674s-2-1.1142-2-1.7001c0-1.205-3.8594-4.7999-5.153-4.7999-0.46584 0-0.84699-0.64468-0.84699-1.4326 0-0.78794-0.9-1.7183-2-2.0674s-2-1.1142-2-1.7001c0-1.205-3.8594-4.7999-5.153-4.7999-0.46584 0-0.84699-0.60277-0.84699-1.3395 0-0.73672-1.1126-1.8464-2.4724-2.466-1.3598-0.61957-2.7586-2.2668-3.1084-3.6605-0.3498-1.3937-1.1934-2.534-1.8746-2.534-1.5925 0-5.5446-3.4127-5.5446-4.7878 0-0.57929-1.35-1.3498-3-1.7122s-3-1.2896-3-2.0604-1.125-1.6838-2.5-2.029c-1.375-0.3451-2.5-1.0287-2.5-1.519 0-0.49037-0.675-0.89159-1.5-0.89159s-1.5-0.66643-1.5-1.481-1.125-1.7633-2.5-2.1084c-1.375-0.3451-2.5-1.2179-2.5-1.9396 0-0.72168-1.35-1.6086-3-1.971s-3-1.0732-3-1.5795c0-0.50629-0.675-0.92054-1.5-0.92054s-1.5-0.63925-1.5-1.4205c0-0.7813-1.35-1.7171-3-2.0795s-3-1.2982-3-2.0795c0-0.78129-0.44691-1.4205-0.99314-1.4205-2.1253 0-9.0069-3.5333-9.0069-4.6246 0-0.63404-1.575-1.4483-3.5-1.8094s-3.5-1.0862-3.5-1.6113c0-0.52508-0.9-0.95469-2-0.95469s-2-0.65461-2-1.4547c0-0.87076-1.4049-1.7182-3.5-2.1113-1.925-0.36113-3.5-1.242-3.5-1.9574 0-0.73832-1.7297-1.593-4-1.9766-2.2-0.37169-4-1.0862-4-1.5879 0-0.50165-0.9-0.9121-2-0.9121s-2-0.64743-2-1.4387c0-0.93852-1.5645-1.6733-4.5-2.1135-2.6766-0.40139-4.5-1.201-4.5-1.9734 0-0.73568-1.7338-1.5915-4-1.9744-2.2-0.37169-4-1.0862-4-1.5879 0-0.50165-1.125-0.9121-2.5-0.9121-1.4814 0-2.5-0.57292-2.5-1.4062 0-0.92904-1.6966-1.6395-5-2.0938-3.1106-0.42782-5-1.1836-5-2s-1.8894-1.5722-5-2c-2.75-0.37822-5-1.0954-5-1.5938s-1.35-0.90616-3-0.90616c-1.9328 0-3-0.508-3-1.428 0-0.981-1.7218-1.6432-5.5-2.1152-3.025-0.37795-5.5-1.0853-5.5-1.572 0-0.48663-1.35-0.88478-3-0.88478-1.9253 0-3-0.50884-3-1.4204 0-1.0101-1.8775-1.6215-6.5-2.1165-4.2106-0.45092-6.5-1.142-6.5-1.9621 0-0.84635-2.4862-1.499-7.5-1.9688-4.125-0.38655-7.5-1.1144-7.5-1.6175s-1.575-0.91468-3.5-0.91468c-2.3355 0-3.5-0.46641-3.5-1.4018 0-0.96929-1.8513-1.6167-6-2.0982-3.8264-0.4441-6-1.1575-6-1.9694 0-0.77652-1.9976-1.538-5.1221-1.9524-2.8171-0.37371-5.7199-1.2773-6.4506-2.008-2.9991-2.9991-2.8988-10.57 0.14008-10.57 0.78793 0 1.4326-0.675 1.4326-1.5 0-1.0833 1.1111-1.5 4-1.5 2.8889 0 4 0.41667 4 1.5 0 1.2281 1.7222 1.5 9.5 1.5 5.225 0 9.5 0.39196 9.5 0.87102 0 0.47905 4.05 1.1878 9 1.5751 6.389 0.4998 9 1.0836 9 2.0125 0 0.87231 2.1665 1.5404 6.5 2.0045 4.6225 0.49503 6.5 1.1064 6.5 2.1165 0 0.99048 1.2107 1.4204 4 1.4204 2.2 0 4 0.40582 4 0.90181 0 0.496 2.7 1.2152 6 1.5982 3.8635 0.44841 6 1.1545 6 1.983 0 0.80955 2.0393 1.5414 5.5 1.9738 3.7782 0.47206 5.5 1.1342 5.5 2.1152 0 0.85658 1.0004 1.428 2.5 1.428 1.375 0 2.5 0.40777 2.5 0.90616s2.25 1.2156 5 1.5938c3.1106 0.42782 5 1.1836 5 2s1.8894 1.5722 5 2c3.3034 0.45434 5 1.1648 5 2.0938 0 0.77339 0.9 1.4062 2 1.4062s2 0.39891 2 0.88646 2.025 1.1901 4.5 1.5613c2.9355 0.4402 4.5 1.175 4.5 2.1135 0 0.7913 0.9 1.4387 2 1.4387s2 0.41045 2 0.9121c0 0.50166 1.8 1.2162 4 1.5879 2.3126 0.39072 4 1.2344 4 2s1.6874 1.6093 4 2c2.4592 0.41548 4 1.2197 4 2.0879 0 0.77665 0.675 1.4121 1.5 1.4121s1.5 0.41045 1.5 0.9121c0 0.50166 1.8 1.2162 4 1.5879 2.386 0.40311 4 1.2273 4 2.0426 0 0.77032 1.5274 1.6533 3.5 2.0234 2.0046 0.37606 3.5 1.25 3.5 2.0453 0 0.76379 0.675 1.3887 1.5 1.3887s1.5 0.41425 1.5 0.92054c0 0.5063 1.35 1.2171 3 1.5795s3 1.2624 3 2 1.35 1.6376 3 2 3 1.2982 3 2.0795c0 0.78129 0.675 1.4205 1.5 1.4205s1.5 0.41425 1.5 0.92054c0 0.5063 1.35 1.2171 3 1.5795s3 1.2982 3 2.0795c0 0.78129 0.675 1.4205 1.5 1.4205s1.5 0.40122 1.5 0.89159c0 0.49038 1.125 1.174 2.5 1.519 1.375 0.34511 2.5 1.2451 2.5 2 0 0.7549 1.125 1.6549 2.5 2 1.375 0.34511 2.5 1.2939 2.5 2.1084s0.675 1.481 1.5 1.481 1.5 0.41968 1.5 0.93261c0 0.51294 0.9 1.2183 2 1.5674s2 1.2907 2 2.0924c0 0.81957 1.3132 1.7202 3 2.0576 1.65 0.33 3 1.0535 3 1.6077 0 1.1611 3.8914 4.7423 5.153 4.7423 0.46584 0 0.84699 0.64468 0.84699 1.4326 0 0.78794 0.9 1.7183 2 2.0674s2 1.0866 2 1.6388c0 1.4434 2.2533 3.4894 4.6972 4.2651 1.1572 0.36727 2.3861 1.792 2.7309 3.1659 0.34485 1.374 1.7396 3.0051 3.0994 3.6247 1.3598 0.61958 2.4724 1.699 2.4724 2.3986 0 0.69965 0.9 1.5577 2 1.9069s2 1.1726 2 1.83c0 0.65739 1.125 2.0401 2.5 3.0727 1.375 1.0326 2.5 2.4894 2.5 3.2374s0.38115 1.3599 0.84699 1.3599c1.2717 0 5.153 3.5855 5.153 4.7603 0 0.56414 0.675 1.2847 1.5 1.6013 0.825 0.31658 1.5 1.2344 1.5 2.0396s0.89895 1.7493 1.9977 2.098c1.0987 0.34872 2.2684 1.7129 2.5994 3.0316 0.33096 1.3186 1.457 2.669 2.5023 3.0007 1.0453 0.33178 1.9006 1.2523 1.9006 2.0456s0.9 2.213 2 3.1548 2 2.0839 2 2.538 1.046 1.8165 2.3245 3.0278 2.6144 2.9898 2.9686 3.9522c0.35425 0.9625 1.1082 1.75 1.6755 1.75 0.56726 0 1.0314 0.59015 1.0314 1.3114s0.7875 2.1838 1.75 3.25 2.425 3.2749 3.25 4.9082 2.2875 3.7708 3.25 4.75 1.75 2.4554 1.75 3.2804 0.41732 1.5 0.92738 1.5 2.0796 2.4357 3.488 5.4127c1.4083 2.977 2.9109 5.5645 3.339 5.75 0.96497 0.41819 24.839 48.393 25.796 51.837 0.38207 1.375 1.0487 2.95 1.4813 3.5 0.43267 0.55 1.7344 3.925 2.8927 7.5 1.1583 3.575 2.5493 7.2814 3.0909 8.2364 0.54169 0.9551 0.98489 2.616 0.98489 3.691s0.39627 2.1995 0.8806 2.4988 1.111 1.5634 1.3926 2.809c0.28163 1.2457 2.3604 8.3035 4.6194 15.684 2.259 7.3806 4.1074 15.143 4.1074 17.25 0 2.1068 0.45 3.8306 1 3.8306s1 1.575 1 3.5 0.45 3.5 1 3.5 1 2.25 1 5 0.45 5 1 5 1 2.025 1 4.5 0.45 4.5 1 4.5 1 2.25 1 5 0.45 5 1 5 1 1.575 1 3.5 0.45 3.5 1 3.5c0.5641 0 1 2.8333 1 6.5s0.4359 6.5 1 6.5c0.55556 0 1 2.6667 1 6s0.44444 6 1 6c0.55 0 1 2.25 1 5s0.45 5 1 5c0.57778 0 1 3.1667 1 7.5s0.42222 7.5 1 7.5 1 3.1667 1 7.5 0.42222 7.5 1 7.5c0.5641 0 1 2.8333 1 6.5s0.4359 6.5 1 6.5c0.57143 0 1 3 1 7s0.42857 7 1 7c0.5641 0 1 2.8333 1 6.5s0.4359 6.5 1 6.5c0.55556 0 1 2.6667 1 6s0.44444 6 1 6c0.55 0 1 2.475 1 5.5s0.45 5.5 1 5.5c0.5641 0 1 2.8333 1 6.5s0.4359 6.5 1 6.5c0.55 0 1 1.4836 1 3.2968 0 1.8133 0.90127 7.5508 2.0028 12.75 1.1016 5.1993 2.7209 12.828 3.5985 16.953s1.9501 8.4 2.3832 9.5c0.81775 2.0769 1.9771 6.1274 4.4365 15.5 0.79376 3.025 2.1488 7.8625 3.0111 10.75 0.86234 2.8875 2.2089 7.5254 2.9923 10.306s1.8535 5.5935 2.3779 6.25c0.52445 0.6565 2.1846 4.7936 3.6892 9.1936 3.0849 9.0214 5.1799 13.905 10.296 24 4.5896 9.056 5.4803 10.687 6.8255 12.5 0.61223 0.825 1.9109 3.6375 2.8859 6.25 0.97499 2.6125 2.1091 4.75 2.5202 4.75s1.0198 0.7875 1.3525 1.75 1.5155 3.1 2.6283 4.75 2.2955 3.7875 2.6283 4.75 0.97217 1.75 1.421 1.75 1.1359 1.0125 1.5268 2.25c0.39097 1.2375 1.5463 2.838 2.5674 3.5567s1.8565 1.8479 1.8565 2.5095c0 0.6615 0.9 1.7648 2 2.4517 1.1 0.687 2 1.9202 2 2.7406 0 0.8203 0.62622 1.4915 1.3916 1.4915 0.76538 0 1.674 1.125 2.019 2.5 0.34511 1.375 1.2939 2.5 2.1084 2.5s1.481 0.6632 1.481 1.4737c0 1.6269 8.4766 10.526 10.026 10.526 0.53552 0 0.97368 0.6204 0.97368 1.3787s1.35 1.9378 3 2.6213 3 1.7784 3 2.4333c0 1.5168 5.4269 5.5667 7.4595 5.5667 0.84727 0 1.5405 0.4705 1.5405 1.0455 0 2.2744 8.5528 8.9545 11.465 8.9545 0.84435 0 1.5352 0.4705 1.5352 1.0455 0 1.9223 5.0581 6.1317 8.5148 7.0862 1.8797 0.519 4.0174 1.5434 4.7503 2.2763 1.8592 1.8593 7.3254 4.592 9.1852 4.592 0.85231 0 1.5497 0.675 1.5497 1.5 0 1 1 1.5 3 1.5 1.65 0 3 0.45 3 1s1.35 1 3 1c2 0 3 0.5 3 1.5 0 1.0533 1.0635 1.5 3.5714 1.5 1.9643 0 4.1987 0.5625 4.9653 1.25 3.5216 3.1581 4.4969 3.7494 6.1711 3.7416 2.972-0.014 15.292 3.3939 15.292 4.2299 0 0.4282 1.2272 0.7785 2.7272 0.7785 3.5144 0 18.618 3.1828 19.273 4.0613 0.275 0.369 2.975 0.9111 6 1.2046 3.025 0.2934 9.1792 1.0941 13.676 1.7792 7.1969 1.0964 8.3646 1.0571 9.75-0.3283 0.86565-0.8657 1.5739-2.2811 1.5739-3.1454s0.45-1.5714 1-1.5714 1-1.125 1-2.5 0.45-2.5 1-2.5 1-0.9 1-2 0.45-2 1-2 1-1.2507 1-2.7792c0-1.6321 0.82553-3.3743 2-4.2208 1.1-0.7928 2-2.4672 2-3.7208 0-1.2535 0.45-2.2792 1-2.2792s1-1.125 1-2.5 0.45-2.5 1-2.5 1-1.125 1-2.5 0.45-2.5 1-2.5 1-0.675 1-1.5 0.45-1.5 1-1.5 1-0.675 1-1.5 0.45-1.5 1-1.5 1-1.4757 1-3.2792c0-2.1321 0.69966-3.7836 2-4.7208 1.1-0.7928 2-2.3678 2-3.5s0.9-2.7072 2-3.5 2-2.2422 2-3.2208c0-0.9785 0.45-1.7792 1-1.7792s1-1.125 1-2.5 0.45-2.5 1-2.5 1-0.8007 1-1.7792c0-0.9786 0.9-2.428 2-3.2208s2-2.4672 2-3.7208c0-1.2535 0.45-2.2792 1-2.2792s1-0.9 1-2 0.45-2 1-2 1-0.8007 1-1.7792c0-0.9786 0.9-2.428 2-3.2208s2-2.4672 2-3.7208c0-1.2535 0.45-2.2792 1-2.2792s1-0.675 1-1.5 0.45-1.5 1-1.5 1-1.0257 1-2.2792c0-1.2536 0.9-2.928 2-3.7208s2-2.4672 2-3.7208c0-1.2535 0.45-2.2792 1-2.2792s1-0.675 1-1.5 0.45-1.5 1-1.5 1-1.0257 1-2.2792c0-1.2536 0.9-2.928 2-3.7208s2-2.0172 2-2.7208c0-0.7035 0.45-1.2792 1-1.2792s1-1.0257 1-2.2792c0-1.2536 0.9-2.928 2-3.7208s2-2.2422 2-3.2208c0-0.9785 0.40122-1.7792 0.89159-1.7792 0.49038 0 1.148-1.0215 1.4613-2.2699s1.4871-3.2546 2.6084-4.4582c1.1213-1.2035 2.0387-2.5577 2.0387-3.0093s0.9-1.4698 2-2.2626 2-1.985 2-2.6493 0.5625-1.8025 1.25-2.5293 2.5338-3.7964 4.1029-6.8214 3.8191-6.4 5-7.5 3.0219-3.575 4.091-5.5c1.0691-1.925 2.5316-4.0946 3.25-4.8214 0.71836-0.7268 1.3061-1.9643 1.3061-2.75s0.45965-1.4286 1.0214-1.4286 1.534-1.125 2.1605-2.5c0.6265-1.375 1.6906-2.5 2.3646-2.5s1.9729-1.575 2.8864-3.5c0.91347-1.925 2.0897-3.5 2.6139-3.5 0.52419 0 0.95308-0.45 0.95308-1s0.7875-1.8733 1.75-2.9407 3.1-3.5529 4.75-5.5233 3.7875-4.3471 4.75-5.2815 1.75-2.174 1.75-2.7545 0.7875-1.785 1.75-2.6766c2.6881-2.4901 6.25-6.9057 6.25-7.7478 0-0.415 1.125-1.2672 2.5-1.8936 1.375-0.6265 2.5-1.6465 2.5-2.2666 0-0.6202 1.125-2.0125 2.5-3.0941 1.375-1.0815 2.5-2.4159 2.5-2.9653 0-1.5317 2.6694-3.856 4.4286-3.856 0.87094 0 1.5714-0.8375 1.5714-1.8787 0-1.1446 1.1722-2.3642 3-3.1213s3-1.9767 3-3.1213c0-1.0333 0.38115-1.8787 0.84699-1.8787 1.3303 0 5.153-3.6108 5.153-4.8673 0-0.623 0.3375-1.0794 0.75-1.0143 2.2111 0.3491 3.25-0.328 3.25-2.1184 0-1.3333 0.66667-2 2-2 1.1 0 2-0.4821 2-1.0714 0-1.6829 2.2682-3.5281 5.2599-4.279 1.5071-0.3782 2.7401-1.3238 2.7401-2.1013 0-0.7774 0.9-1.6992 2-2.0483s2-1.0866 2-1.6388c0-1.5361 2.6667-3.8612 4.4286-3.8612 0.8643 0 1.5714-0.4821 1.5714-1.0714 0-1.5932 2.6326-3.9286 4.4286-3.9286 0.8643 0 1.5714-0.675 1.5714-1.5s0.8679-1.5 1.9286-1.5 2.6035-0.675 3.4285-1.5 2.2072-1.5 3.0715-1.5 1.5714-0.6447 1.5714-1.4326 0.9-1.7183 2-2.0674 2-1.0545 2-1.5674 0.675-0.9326 1.5-0.9326 1.5-0.675 1.5-1.5 0.675-1.5 1.5-1.5 1.5-0.45 1.5-1 0.675-1 1.5-1 1.5-0.675 1.5-1.5c0-1.0476 1.0556-1.5 3.5-1.5 1.925 0 3.5-0.45 3.5-1s0.9-1 2-1c1.1111 0 2-0.6667 2-1.5 0-0.825 0.675-1.5 1.5-1.5s1.5-0.45 1.5-1 0.9-1 2-1 2-0.4296 2-0.9547 1.575-1.2501 3.5-1.6113c1.925-0.3611 3.5-1.0565 3.5-1.5453s0.9-0.8887 2-0.8887c1.1111 0 2-0.6667 2-1.5 0-0.9333 0.9444-1.5 2.5-1.5 1.375 0 2.5-0.45 2.5-1s0.9-1 2-1 2-0.3989 2-0.8865c0-0.4875 2.025-1.1901 4.5-1.5612 2.475-0.3712 4.5-1.0973 4.5-1.6136s0.9-0.9387 2-0.9387 2-0.6231 2-1.3848c0-0.9285 1.812-1.6111 5.5-2.0719 3.025-0.378 5.5-1.1048 5.5-1.6153 0-0.5104 1.35-0.928 3-0.928 2.3333 0 3-0.4444 3-2 0-1.7778 0.6667-2 6-2 4.6667 0 6-0.3333 6-1.5 0-1.0833 1.1111-1.5 4-1.5 2.2 0 4-0.392 4-0.871 0-0.4791 4.05-1.1879 9-1.5751 7.9725-0.6237 9-0.9238 9-2.629 0-1.8197 0.8747-1.9249 16-1.9249 13.556 0 16-0.2292 16-1.5 0-1.2793 2.7222-1.5 18.5-1.5s18.5 0.2207 18.5 1.5 2.7222 1.5 18.5 1.5c17.482 0 18.5 0.1041 18.5 1.8921 0 1.6823 1.1089 1.9715 10 2.6079 5.5 0.3937 10 1.1172 10 1.6079 0 0.4906 1.125 0.8921 2.5 0.8921 1.5556 0 2.5 0.5667 2.5 1.5 0 1.2083 1.5556 1.5 8 1.5 7.3333 0 8 0.1667 8 2 0 1.5556 0.6667 2 3 2 1.65 0 3 0.4345 3 0.9656 0 0.531 2.25 1.264 5 1.6288 3.2465 0.4307 5 1.1441 5 2.0344 0 0.7959 1.0488 1.3712 2.5 1.3712 1.375 0 2.5 0.3981 2.5 0.8848 0 0.4866 2.475 1.194 5.5 1.5719 3.025 0.378 5.5 1.1048 5.5 1.6153 0 0.5104 0.9 0.928 2 0.928s2 0.45 2 1 0.9 1 2 1c1.1111 0 2 0.6667 2 1.5s0.8889 1.5 2 1.5c1.1 0 2 0.4104 2 0.9121s1.8 1.2162 4 1.5879 4 1.0862 4 1.5879 0.9 0.9121 2 0.9121 2 0.45 2 1 0.9 1 2 1c1.1111 0 2 0.6667 2 1.5s0.8889 1.5 2 1.5c1.1 0 2 0.45 2 1s1.35 1 3 1c2 0 3 0.5 3 1.5 0 0.8333 0.8889 1.5 2 1.5 1.1 0 2 0.45 2 1s0.9 1 2 1c1.1111 0 2 0.6667 2 1.5s0.8889 1.5 2 1.5c1.1 0 2 0.3938 2 0.875 0 0.4813 1.35 1.145 3 1.475 1.7596 0.3519 3 1.2306 3 2.125 0 0.8388 0.675 1.525 1.5 1.525s1.5 0.4296 1.5 0.9547 1.575 1.2501 3.5 1.6113c2.0046 0.376 3.5 1.2499 3.5 2.0453 0 0.8249 1.044 1.3887 2.5714 1.3887 2.3674 0 5.4286 1.9737 5.4286 3.5 0 1.2327 2.8688 3.5 4.4286 3.5 0.8643 0 1.5714 0.6447 1.5714 1.4326s0.9 1.7183 2 2.0674 2 1.2795 2 2.0674 0.6061 1.4326 1.347 1.4326c1.7236 0 5.653 3.3833 5.653 4.8673 0 0.623 1.35 1.1327 3 1.1327 2.3333 0 3 0.4444 3 2 0 1.1 0.4295 2 0.9545 2s2.0796 1.125 3.4546 2.5 3.1954 2.5 4.0454 2.5 1.5455 0.675 1.5455 1.5 0.45 1.5 1 1.5 1 0.675 1 1.5 0.7071 1.5 1.5714 1.5c1.796 0 4.4286 2.3354 4.4286 3.9286 0 0.5893 0.7071 1.0714 1.5714 1.0714 1.5965 0 4.4286 2.2774 4.4286 3.5613 0 0.9314 4.0717 4.4387 5.153 4.4387 0.4659 0 0.847 0.6447 0.847 1.4326s0.9189 1.7243 2.0419 2.0807c2.3389 0.7423 9.9581 7.919 9.9581 9.3797 0 0.5347 0.7875 1.2287 1.75 1.5422 0.9625 0.3134 2.6099 2.3688 3.6609 4.5673 1.051 2.1986 2.4976 3.9975 3.2147 3.9975 1.1873 0 2.1737 0.91 7.6244 7.0339 0.9625 1.0813 1.75 2.3858 1.75 2.8987s0.9 1.2183 2 1.5674 2 1.2491 2 2 0.8188 1.6251 1.8196 1.9428c1.0008 0.3176 2.5685 2.1479 3.4838 4.0673 0.9154 1.9195 2.3465 3.4899 3.1804 3.4899s1.5162 0.5757 1.5162 1.2792c0 0.7036 0.9 1.928 2 2.7208s2 2.2119 2 3.1534 0.9 1.9975 2 2.3466 2 1.1142 2 1.7001c0 1.1469 3.833 4.7999 5.0364 4.7999 0.4017 0 1.019 0.7875 1.3719 1.75 1.2472 3.4025 3.713 7.25 4.6463 7.25 0.52 0 0.9454 0.675 0.9454 1.5s0.4414 1.5 0.9809 1.5c0.5396 0 1.2634 1.125 1.6085 2.5s1.2451 2.5 2 2.5 1.6549 1.125 2 2.5 1.0608 2.5 1.5904 2.5c1.1908 0 3.8202 2.5521 3.8202 3.7078 0 0.4679 0.9 1.4994 2 2.2922s2 2.0172 2 2.7208c0 0.7035 0.45 1.2792 1 1.2792s1 0.675 1 1.5 0.45 1.5 1 1.5 1 0.675 1 1.5 0.45 1.5 1 1.5 1 0.675 1 1.5 0.3975 1.5 0.8834 1.5c0.4858 0 1.1478 0.7875 1.4709 1.75 0.8073 2.4041 2.8042 5.4035 4.8957 7.3532 0.9625 0.8973 1.75 2.5911 1.75 3.7641s0.45 2.1327 1 2.1327 1 0.9 1 2 0.45 2 1 2 1 0.694 1 1.5422c0 1.6562 0.9421 3.0044 5.25 7.5125 1.5125 1.5829 2.75 3.5681 2.75 4.4116s0.45 1.5337 1 1.5337 1 0.8962 1 1.9915c0 1.0954 0.9 2.5536 2 3.2406 1.1 0.6869 2 1.8157 2 2.5084s0.45 1.2595 1 1.2595 1 1.125 1 2.5 0.406 2.5 0.9022 2.5 1.3728 1.35 1.948 3c0.5751 1.65 1.5192 3 2.0978 3s1.052 0.8962 1.052 1.9915c0 1.0954 0.9 2.5536 2 3.2406 1.1 0.6869 2 2.0407 2 3.0084s0.45 1.7595 1 1.7595 1 0.8493 1 1.8874 1.3459 2.9506 2.9909 4.25 2.995 3.1797 3 4.1783c0.012 2.3037 1.9049 5.95 3.6149 6.9615 0.7226 0.4274 1.607 2.3399 1.9653 4.25 0.3583 1.91 1.0156 3.4728 1.4607 3.4728s1.1125 1.3804 1.483 3.0676c0.3706 1.6871 1.3064 3.3103 2.0795 3.607 0.7731 0.2966 1.4057 1.2259 1.4057 2.0651 0 0.8391 0.832 2.2535 1.8489 3.143 1.0168 0.8895 2.1599 3.2926 2.5402 5.3401 0.3802 2.0476 1.2552 4.0726 1.9444 4.5 0.6892 0.4275 1.8682 2.6897 2.6199 5.0272s1.7089 4.25 2.1272 4.25 1.0637 1.3804 1.4342 3.0676c0.3706 1.6871 1.3064 3.3103 2.0795 3.607 0.7731 0.2966 1.4057 1.1662 1.4057 1.9324 0 0.7661 0.45 1.393 1 1.393s1 0.8788 1 1.9529c0 1.9494 1.9436 7.1003 3.0364 8.0471 0.3174 0.275 1.1687 1.9625 1.8917 3.75s1.7099 3.25 2.1932 3.25 0.8787 1.125 0.8787 2.5 0.45 2.5 1 2.5 1 0.9217 1 2.0483 0.9 3.9111 2 6.1878c1.1 2.2768 2 4.73 2 5.4517s0.45 1.3122 1 1.3122 1 0.6811 1 1.5136c0 0.8324 0.4282 2.2949 0.9515 3.25 0.5233 0.955 1.9831 4.0989 3.2441 6.9864s2.6328 5.25 3.0485 5.25c0.4158 0 0.7559 1.125 0.7559 2.5s0.3596 2.5 0.7991 2.5 1.3693 1.6875 2.0661 3.75c1.3881 4.1083 2.8843 7.7989 4.2515 10.486 0.4858 0.9551 0.8833 2.4176 0.8833 3.25 0 0.8325 0.45 1.5136 1 1.5136s1 1.125 1 2.5 0.45 2.5 1 2.5 1 0.9 1 2 0.45 2 1 2 1 0.9 1 2 0.387 2 0.8601 2 1.1196 2.3625 1.4368 5.25 1.5052 7.0326 2.6399 9.2114c1.1348 2.1788 2.0632 4.5699 2.0632 5.3135 0 0.7437 1.7401 6.611 3.8669 13.039 2.1269 6.4276 4.4685 13.658 5.2038 16.069 0.7352 2.4103 1.9201 4.9656 2.633 5.6786 0.713 0.7129 1.2963 2.9034 1.2963 4.8677s0.45 3.5714 1 3.5714 1 1.575 1 3.5 0.45 3.5 1 3.5 1 1.575 1 3.5 0.4047 3.5 0.8993 3.5c0.8555 0 2.031 6.3309 2.2746 12.25 0.062 1.5125 0.4467 2.75 0.8544 2.75s1.046 2.5875 1.4186 5.75c0.8644 7.3387 3.5562 17.25 4.6849 17.25 0.4775 0 0.8682 2.25 0.8682 5s0.3604 5 0.8009 5c0.4404 0 1.3145 3.2625 1.9424 7.25 1.8613 11.821 3.6622 19.75 4.4855 19.75 0.4242 0 0.7712 2.25 0.7712 5s0.45 5 1 5 1 1.6564 1 3.681c0 4.7717 4.2278 26.718 5.2307 27.152 0.4231 0.1834 0.7693 1.5296 0.7693 2.9917 0 4.5992 2.4057 18.175 3.2208 18.175 0.4285 0 0.7792 2.4198 0.7792 5.3773 0 2.9576 0.6401 8.4701 1.4224 12.25 0.7823 3.78 2.1163 11.598 2.9645 17.373 3.4136 23.241 4.0865 27 4.8339 27 0.4285 0 0.7792 2.7891 0.7792 6.1981 0 7.692 2.1207 22.802 3.2003 22.802 0.4398 0 0.7997 3.375 0.7997 7.5s0.3872 7.5 0.8605 7.5 1.1538 5.0625 1.5123 11.25c0.9792 16.902 1.7714 23.75 2.7474 23.75 0.4839 0 0.8761 2.8125 0.8715 6.25-0.012 8.9715 2.2593 30.75 3.2068 30.75 0.4408 0 0.8015 4.05 0.8015 9s0.3892 9 0.865 9c0.4757 0 1.1083 5.5125 1.4057 12.25 0.8325 18.862 3.9263 52.211 4.8782 52.583 0.4681 0.1834 0.8445 4.2334 0.8364 9-0.021 12.137 2.2448 41.167 3.2123 41.167 0.4413 0 0.8024 6.075 0.8024 13.5 0 8.3333 0.3827 13.5 1 13.5 0.625 0 1 6 1 16s0.375 16 1 16c0.6286 0 1 6.5 1 17.5s0.3714 17.5 1 17.5c0.6355 0 1 7.8056 1 21.417 0 11.779 0.3973 21.567 0.883 21.75 1.1722 0.4425 3.1318 79.712 3.1354 126.83 0 47.132-1.9904 129.39-3.1474 129.83-0.479 0.1834-0.871 11.096-0.871 24.25 0 15.278-0.3612 23.917-1 23.917-0.6306 0-1 6.8333-1 18.5s-0.3694 18.5-1 18.5c-0.6248 0-1 5.9803-1 15.941 0 9.5486-0.401 16.189-1 16.559-0.592 0.3659-1 6.5104-1 15.059 0 7.9426-0.3887 14.441-0.8637 14.441-0.9801 0-1.8465 11.544-2.7769 37-0.3518 9.625-0.9591 17.725-1.3496 18-0.9246 0.6512-5.0386 49.185-5.0223 59.25 0.01 4.5084-0.4058 7.75-0.9875 7.75-0.6 0-1 4-1 10 0 5.5-0.3796 10-0.8436 10-0.9702 0-3.1564 24.105-3.1564 34.802 0 3.9588-0.3671 7.1978-0.8158 7.1978-0.9396 0-3.1965 22.469-3.1892 31.75 0 3.5033-0.4345 6.25-0.995 6.25-0.5965 0-1 3.8333-1 9.5 0 5.225-0.3542 9.5-0.7871 9.5-0.9829 0-3.2396 21.172-3.2243 30.25 0.01 3.7125-0.3578 6.75-0.809 6.75s-1.3805 5.5125-2.0652 12.25c-0.6848 6.7375-2.5637 23.5-4.1755 37.25s-2.9324 28.712-2.9347 33.25c0 4.5375-0.3776 8.25-0.834 8.25-1.0887 0-3.1735 23.828-3.1716 36.25 8e-4 5.3625-0.381 9.75-0.8483 9.75s-1.1558 4.3875-1.53 9.75-1.1243 14.25-1.6668 19.75c-0.5426 5.5-1.2708 16.188-1.6184 23.75-0.3475 7.5625-1.0151 13.75-1.4835 13.75s-0.8516 4.0125-0.8516 8.9167c0 4.9041-0.3562 9.0666-0.7916 9.25-0.9172 0.3862-4.3204 29.218-4.9674 42.083-0.242 4.8125-0.8452 8.75-1.3405 8.75s-0.9005 3.375-0.9005 7.5-0.3743 7.5-0.8317 7.5c-0.8832 0-4.4622 22.92-4.5675 29.25-0.034 2.0625-0.3458 3.75-0.6923 3.75s-0.505 1.575-0.3522 3.5c0.1527 1.925-0.07 3.5-0.4954 3.5-0.4253 0-0.6924 2.4944-0.5937 5.5431 0.2511 7.7533-1.3233 18.456-2.955 20.088-0.7532 0.7531-2.0765 1.3693-2.9408 1.3693s-1.5714 0.45-1.5714 1-1.575 1-3.5 1-3.5-0.3975-3.5-0.8834zm-1084-270.12c0-2.75 0.45-5 1-5s1-2.475 1-5.5 0.45-5.5 1-5.5c0.5641 0 1-2.8333 1-6.5s0.4359-6.5 1-6.5c0.55 0 1-2.25 1-5s0.45-5 1-5 1-2.025 1-4.5 0.45-4.5 1-4.5c0.55556 0 1-2.6667 1-6s0.44444-6 1-6c0.55 0 1-2.25 1-5s0.45-5 1-5 1-2.25 1-5 0.45-5 1-5 1-2.25 1-5 0.45-5 1-5 1-1.7682 1-3.9293c0-3.7462 3.7485-22.929 18.481-94.571 8.5319-41.49 18.725-89.491 24.101-113.5 1.2933-5.775 3.5059-15.675 4.917-22 3.1592-14.161 13.926-57.978 16.587-67.5 1.0756-3.85 2.3848-8.575 2.9093-10.5 2.0398-7.4868 7.2061-24.601 7.9998-26.5 0.45967-1.1 1.6159-4.475 2.5695-7.5 1.8552-5.8855 4.7509-14.51 8.3939-25 1.2415-3.575 2.6021-7.85 3.0235-9.5 0.42137-1.65 4.198-11.704 8.3924-22.343 4.1945-10.639 7.6263-20.201 7.6263-21.25 0-1.049 0.45-1.9072 1-1.9072s1-0.9 1-2 0.45-2 1-2 1-0.675 1-1.5 0.45-1.5 1-1.5 1-1.125 1-2.5 0.45-2.5 1-2.5 1-1.125 1-2.5 0.45-2.5 1-2.5 1-0.9 1-2 0.45-2 1-2 1-1.125 1-2.5 0.45-2.5 1-2.5 1-0.675 1-1.5 0.45-1.5 1-1.5 1-1.125 1-2.5 0.45-2.5 1-2.5 1-0.9188 1-2.0418 0.9-3.0079 2-4.1886 2-2.9619 2-3.9582 0.45-1.8114 1-1.8114 1-0.675 1-1.5 0.45-1.5 1-1.5 1-1.125 1-2.5 0.45-2.5 1-2.5 1-0.675 1-1.5 0.45-1.5 1-1.5 1-0.9 1-2 0.45-2 1-2 1-0.675 1-1.5 0.45-1.5 1-1.5 1-0.9 1-2 0.45-2 1-2 1-0.8007 1-1.7792c0-0.9786 0.9-2.428 2-3.2208s2-2.2422 2-3.2208c0-0.9785 0.45-1.7792 1-1.7792s1-0.675 1-1.5 0.45-1.5 1-1.5 1-0.675 1-1.5 0.45-1.5 1-1.5 1-0.9 1-2 0.45-2 1-2 1-0.675 1-1.5 0.45-1.5 1-1.5 1-0.675 1-1.5 0.45-1.5 1-1.5 1-0.6839 1-1.5199c0-1.5962 4.358-8.981 6.6563-11.279 0.73903-0.739 1.3437-1.9865 1.3437-2.7722s0.36714-1.4286 0.81586-1.4286 1.7706-1.6987 2.9375-3.7749 2.9372-4.7274 3.9341-5.8915c4.0758-4.7596 6.3125-7.8148 6.3125-8.6221 0-0.4699 0.5625-1.426 1.25-2.1246s2.375-2.7627 3.75-4.5869 2.9642-3.808 3.5315-4.4084c0.56731-0.6004 4.8308-5.8166 9.4745-11.592s9.242-11.372 10.219-12.439c0.97652-1.0662 1.7755-2.3037 1.7755-2.75s0.675-0.8114 1.5-0.8114 1.5082-0.3375 1.5182-0.75c0.024-0.9889 4.3417-6.2531 10.232-12.475 2.6125-2.7596 4.75-5.4129 4.75-5.8962 0-0.4834 0.675-0.8788 1.5-0.8788s1.5-0.4945 1.5-1.0988 1.35-2.3599 3-3.9012 3-3.2969 3-3.9012 0.9-1.0988 2-1.0988 2-0.4945 2-1.0988 1.35-2.3599 3-3.9012 3-3.2969 3-3.9012 0.9-1.0988 2-1.0988 2-0.4945 2-1.0988c0-1.0756 2.8526-3.8969 9-8.9012 1.6891-1.375 4.3891-3.625 6-5s4.3157-3.625 6.0106-5c1.6949-1.375 4.8401-4.075 6.9894-6s5.3005-4.625 7.0028-6c1.7023-1.375 3.7159-3.0625 4.4747-3.75s2.0868-1.25 2.9511-1.25c0.86429 0 1.5714-0.675 1.5714-1.5s0.675-1.5 1.5-1.5 1.5-0.45 1.5-1 0.675-1 1.5-1 1.5-0.4641 1.5-1.0314c0-0.5672 0.78632-1.3331 1.7474-1.7019s2.7394-1.5922 3.9518-2.7186c3.8435-3.5708 5.1883-4.5481 6.2586-4.5481 0.57322 0 1.0422-0.4414 1.0422-0.9809 0-0.5396 1.125-1.2634 2.5-1.6085s2.5-1.0286 2.5-1.519 0.62686-0.8916 1.393-0.8916c0.76616 0 1.652-0.675 1.9686-1.5 0.31658-0.825 1.2647-1.5 2.107-1.5 0.84226 0 1.5314-0.45 1.5314-1s0.46899-1 1.0422-1c0.98084 0 2.112-0.7825 5.4211-3.75 0.76662-0.6875 2.1225-1.25 3.013-1.25s2.6618-1.125 3.9361-2.5 3.1137-2.5 4.0876-2.5 2.8133-1.125 4.0876-2.5 3.2599-2.5 4.4124-2.5 3.1381-1.125 4.4124-2.5 3.0718-2.5 3.9945-2.5c1.5681 0 2.5588-0.6134 6.0564-3.75 0.76662-0.6875 2.12-1.25 3.0075-1.25 1.509 0 2.5081-0.6253 5.9925-3.75 0.76662-0.6875 2.3582-1.25 3.5367-1.25s2.806-0.6631 3.6164-1.4736c0.81047-0.8104 3.2533-1.9528 5.4286-2.5385 2.1752-0.5858 3.955-1.3875 3.955-1.7818 0-0.8218 6.0659-3.0857 10.5-3.9188 1.65-0.31 3.225-0.8886 3.5-1.2859 1.0218-1.4762 6.9857-4.0014 9.4503-4.0014 1.4024 0 2.5497-0.3778 2.5497-0.8395 0-1.1212 3.9874-2.8799 8.4109-3.7098 1.974-0.3703 3.5891-1.0732 3.5891-1.562s1.3125-0.8887 2.9167-0.8887c1.6041 0 3.0763-0.479 3.2715-1.0645 0.1951-0.5855 2.2576-1.3197 4.5833-1.6317 2.3257-0.3119 4.2285-0.9579 4.2285-1.4355s1.3125-0.8683 2.9167-0.8683c1.6041 0 3.0694-0.4582 3.256-1.0182 0.1867-0.56 2.6992-1.2977 5.5834-1.6393 2.8841-0.3416 5.2439-1.0084 5.2439-1.4818s1.7625-0.8607 3.9167-0.8607c2.1541 0 4.0738-0.4716 4.266-1.0481s2.9297-1.3144 6.0833-1.6399c3.1537-0.3255 5.734-0.9788 5.734-1.4519s2.2125-0.8601 4.9167-0.8601c2.7041 0 5.0724-0.4672 5.2627-1.0383 0.1904-0.5711 3.6029-1.3113 7.5834-1.645 3.9804-0.3337 7.2372-0.9915 7.2372-1.4617 0-0.4703 3.15-0.855 7-0.855s7-0.4228 7-0.9394c0-0.5167 3.15-1.2499 7-1.6293 3.85-0.3793 7-1.0816 7-1.5605 0-0.4844 25.738-0.8708 58-0.8708 31.9 0 58 0.384 58 0.8533s3.4875 1.1477 7.75 1.5076 7.9 1.1009 8.0833 1.6467c0.1834 0.5458 3.2209 0.9924 6.75 0.9924 3.5292 0 6.4167 0.3832 6.4167 0.8515s3.9327 1.129 8.7394 1.4682 8.8942 1.081 9.0833 1.6485c0.1892 0.5675 2.5565 1.0318 5.2606 1.0318 2.7042 0 4.9167 0.3884 4.9167 0.8631s3.0228 1.1057 6.7174 1.4023 6.8821 1.0332 7.0834 1.6369c0.2012 0.6037 2.1284 1.0977 4.2825 1.0977 2.1542 0 3.9167 0.3919 3.9167 0.8708s3.15 1.1812 7 1.5605c3.85 0.3794 7 1.1126 7 1.6293 0 0.5166 1.35 0.9394 3 0.9394s3 0.45 3 1 1.7679 1 3.9286 1 4.5321 0.6036 5.2698 1.3413 2.8983 1.3855 4.8013 1.4396c1.9031 0.054 3.6191 0.5756 3.8135 1.1588 0.1944 0.5831 1.6939 1.0603 3.3322 1.0603 3.7204 0 12.855 2.9241 12.855 4.1151 0 0.4867 0.9521 0.8849 2.1158 0.8849 2.7674 0 11.884 3.2486 11.884 4.2347 0 0.4209 1.0578 0.7653 2.3508 0.7653 3.5036 0 8.9105 2.0509 10.938 4.1489 0.9839 1.0181 2.8752 1.8511 4.2029 1.8511 2.8483 0 7.5081 1.9615 7.5081 3.1605 0 0.4617 1.575 0.8395 3.5 0.8395s3.5 0.4012 3.5 0.8916 1.125 1.1739 2.5 1.519 2.5 1.0689 2.5 1.6085c0 0.5395 1.144 0.9809 2.5422 0.9809 2.3698 0 3.3037 0.506 6.9211 3.75 0.7666 0.6875 2.551 1.25 3.9653 1.25s2.5714 0.45 2.5714 1 0.8679 1 1.9286 1 2.6035 0.675 3.4285 1.5 2.5811 1.5 3.9025 1.5c1.5391 0 2.8832 0.8983 3.7404 2.5 0.8502 1.5885 2.2032 2.5 3.7112 2.5 2.213 0 3.1519 0.5215 6.7521 3.75 0.7666 0.6875 2.326 1.25 3.4653 1.25s2.0714 0.4197 2.0714 0.9326 1.0125 1.2523 2.25 1.6431c1.2375 0.3907 2.9778 1.546 3.8673 2.5673 0.8895 1.0214 2.3661 1.857 3.2814 1.857 0.9152 0 1.9231 0.675 2.2397 1.5s1.4464 1.5 2.5108 1.5c1.8069 0 2.771 0.5726 6.3141 3.75 0.7666 0.6875 2.101 1.25 2.9653 1.25s1.5714 0.45 1.5714 1 0.8795 1 1.9545 1 3.0796 1.125 4.4546 2.5 2.9846 2.5 3.5768 2.5c0.5923 0 1.3359 0.675 1.6525 1.5s1.2024 1.5 1.9686 1.5c0.7661 0 1.393 0.45 1.393 1s0.6891 1 1.5314 1c0.8422 0 1.7904 0.675 2.107 1.5s1.2024 1.5 1.9686 1.5c0.7661 0 1.393 0.45 1.393 1s0.8524 1 1.8942 1c1.0419 0 3.3148 1.3269 5.051 2.9488 1.7361 1.6218 4.0337 3.2271 5.1057 3.5674 1.072 0.3402 1.9491 1.2633 1.9491 2.0512s0.3651 1.4326 0.8114 1.4326 1.7963 0.9175 3 2.039c1.2037 1.1214 2.1886 1.7754 2.1886 1.4534s2.0753 1.4604 4.6118 3.961 5.0076 4.5466 5.4913 4.5466 2.1696 1.35 3.7465 3c1.5768 1.65 3.2159 3 3.6423 3 0.9338 0 5.5051 5.1882 5.5069 6.25 7e-4 0.4125 0.9012 0.75 2.0012 0.75s2 0.3768 2 0.8372c0 0.9743 7.6242 9.1628 8.5314 9.1628 1.0132 0 3.4686 2.781 3.4686 3.9286 0 0.5893 0.8512 1.0714 1.8916 1.0714 1.1837 0 2.1264 0.9356 2.519 2.5 0.3451 1.375 1.2939 2.5 2.1085 2.5 0.8145 0 1.4809 0.4541 1.4809 1.0091s1.35 2.4217 3 4.1483 3 3.5225 3 3.9909 0.4715 0.8517 1.0477 0.8517c1.049 0 3.701 2.7208 7.4523 7.6456 1.1 1.4441 3.2375 3.8995 4.75 5.4563 1.5125 1.5569 2.75 3.292 2.75 3.8559s0.9 1.5873 2 2.2743c1.1 0.6869 2 1.8119 2 2.5 0 0.688 0.9 1.813 2 2.5 1.1 0.6869 2 1.8157 2 2.5084s0.45 1.2595 1 1.2595 1.0104 0.7875 1.0232 1.75c0.013 0.9625 1.5854 3.4845 3.4948 5.6045 1.9093 2.12 4.4568 5.6075 5.6609 7.75 1.2042 2.1425 2.7815 3.8955 3.5052 3.8955 0.737 0 1.3159 1.0999 1.3159 2.5 0 1.5556 0.5667 2.5 1.5 2.5 0.825 0 1.5 0.6061 1.5 1.347 0 0.7408 0.9 2.3847 2 3.653s2 2.9122 2 3.653c0 0.7409 0.675 1.347 1.5 1.347 0.8946 0 1.5 0.9199 1.5 2.2792 0 1.2536 0.9 2.928 2 3.7208s2 2.0172 2 2.7208c0 0.7035 0.45 1.2792 1 1.2792s1 1.125 1 2.5 0.45 2.5 1 2.5 1 0.4696 1 1.0436c0 1.5379 14.237 30.399 15.188 30.79 0.4464 0.1834 0.8116 1.4209 0.8116 2.75 0 1.3292 0.45 2.4167 1 2.4167s1 1.125 1 2.5 0.45 2.5 1 2.5 1 1.125 1 2.5 0.45 2.5 1 2.5 1 0.9145 1 2.0321c0 1.1177 0.6806 3.6611 1.5125 5.6522 0.8319 1.991 1.7515 5.014 2.0435 6.7178 0.8838 5.1565 3.756 13.598 4.6266 13.598 0.4496 0 0.8174 1.575 0.8174 3.5s0.45 3.5 1 3.5 1 1.1676 1 2.5948c0 3.3008 4.0367 16.796 5.1563 17.238 0.464 0.1834 0.8437 2.3209 0.8437 4.75 0 2.4292 0.45 4.4167 1 4.4167s0.9996 1.2375 0.9992 2.75c0 4.1833 4.2308 24.704 5.1729 25.083 0.4554 0.1834 0.8279 2.5275 0.8279 5.2092 0 6.4285 2.0372 19.958 3.0053 19.958 0.4191 0 0.9922 4.3875 1.2735 9.75s1.4414 19.425 2.5779 31.25c2.5577 26.612 3.8848 52.986 4.7676 94.75 0.375 17.738 0.9974 32.25 1.3832 32.25 0.3859 0 0.9871-5.5125 1.3362-12.25 1.0918-21.072 1.9077-29.75 2.7973-29.75 0.4724 0 0.859-5.85 0.859-13 0-8 0.3846-13 1-13 0.5959 0 0.9925-3.7376 0.9814-9.25-0.025-12.63 2.2356-50.132 3.0598-50.75 0.3669-0.275 0.9551-10.85 1.307-23.5 1.0571-37.989 1.9061-54.5 2.8024-54.5 0.4672 0 0.8494-12.825 0.8494-28.5 0-18.333 0.3567-28.5 1-28.5 0.6594 0 1-31.353 1-92.059 0-61.118-0.3361-91.851-1-91.441-0.6574 0.4063-1-8.8229-1-26.941 0-15.157-0.3641-27.559-0.8091-27.559-0.8809 0-3.2259-45.19-3.2043-61.75 0.01-5.6375-0.3729-10.25-0.845-10.25-0.9219 0-1.7818-12.225-2.796-39.75-0.3495-9.4875-1.0203-17.25-1.4906-17.25-0.4702 0-0.855-5.5875-0.855-12.417 0-6.8291-0.3917-12.567-0.8704-12.75-1.0083-0.3861-3.1296-24.811-3.1296-36.034 0-4.1982-0.3904-7.7831-0.8675-7.9665-0.4772-0.1833-1.6192-8.8833-2.5378-19.333-1.5684-17.841-3.0199-31.782-5.5185-53-0.5829-4.95-1.0635-12.262-1.068-16.25 0-3.9875-0.4041-7.25-0.888-7.25-0.9324 0-1.7139-6.3184-2.7522-22.25-0.3495-5.3625-1.0252-9.75-1.5017-9.75s-0.8663-1.2874-0.8663-2.8609c0-1.5734-0.8952-8.6609-1.9894-15.75-1.0942-7.089-1.9942-15.477-2-18.639-0.01-3.1625-0.4606-5.75-1.0106-5.75-0.5714 0-1-3-1-7 0-3.85-0.3627-7-0.8059-7-0.4433 0-1.3949-4.1625-2.1147-9.25s-1.6961-11.05-2.1696-13.25-0.8719-6.3625-0.8854-9.25c-0.013-2.8875-0.4744-5.25-1.0244-5.25-0.5556 0-1-2.6667-1-6 0-3.3-0.3779-6-0.8398-6-0.7259 0-1.5583-3.6526-3.8083-16.71-0.2644-1.5345-0.684-5.265-0.9325-8.29s-0.7374-6.175-1.0866-7c-1.025-2.4217-1.3254-4.1184-1.992-11.25-0.347-3.7125-1.0156-6.75-1.4858-6.75-0.4703 0-0.855-2.25-0.855-5s-0.45-5-1-5-1-2.25-1-5-0.45-5-1-5-1-1.575-1-3.5-0.3674-3.5-0.8165-3.5-1.3839-3.0375-2.0774-6.75c-0.6934-3.7125-1.9033-8.775-2.6887-11.25-0.7853-2.475-2.29-8.1-3.3437-12.5-1.8904-7.8938-3.6429-14.218-6.6509-24-0.8456-2.75-1.7924-7.3625-2.104-10.25-0.3115-2.8875-0.9607-5.25-1.4426-5.25s-0.8762-1.125-0.8762-2.5-0.45-2.5-1-2.5-1-1.575-1-3.5-0.45-3.5-1-3.5-1-1.125-1-2.5-0.45-2.5-1-2.5-1-0.9089-1-2.0199c0-1.1109-1.059-4.6261-2.3533-7.8115-1.2944-3.1853-2.6648-7.4514-3.0454-9.4801-0.3805-2.0287-1.1215-3.6885-1.6466-3.6885s-0.9547-0.9321-0.9547-2.0714-0.5833-2.6548-1.2963-3.3677c-0.7129-0.713-1.8818-3.2683-2.5974-5.6786-0.7157-2.4103-1.6989-5.1501-2.185-6.0886-0.486-0.9385-1.1747-3.526-1.5303-5.75s-0.9767-4.0437-1.38-4.0437c-0.9524 0-5.011-10.601-5.011-13.089 0-1.051-0.45-1.911-1-1.911s-1-0.9321-1-2.0714-0.6573-2.7288-1.4607-3.5322-1.7725-3.1224-2.1535-5.1535c-0.381-2.031-1.2985-4.2984-2.0388-5.0388-0.7403-0.7403-1.6288-3.1141-1.9743-5.2751-0.3456-2.1609-1.0208-3.929-1.5005-3.929s-0.8722-0.675-0.8722-1.5-0.45-1.5-1-1.5-1-0.9-1-2-0.45-2-1-2-1-1.125-1-2.5-0.3596-2.5-0.7991-2.5c-0.916 0-3.2009-5.8633-3.2009-8.214 0-0.8646-0.6326-1.8148-1.4057-2.1114-0.7731-0.2967-1.728-2.0069-2.1219-3.8004s-1.3585-3.9031-2.1434-4.6881c-0.785-0.7849-1.6806-2.6942-1.9903-4.2427-0.3097-1.5486-1.1796-3.0521-1.933-3.3412s-1.6604-2.3429-2.0156-4.5639c-0.3551-2.2211-1.0033-4.0383-1.4404-4.0383-0.437 0-1.3144-1.575-1.9497-3.5s-1.4982-3.5-1.9175-3.5-1.3564-1.8-2.0825-4-1.6981-4-2.1601-4c-0.4619 0-0.8399-0.6938-0.8399-1.5418s-0.9-2.5079-2-3.6886-2-3.1869-2-4.4582-0.45-2.3114-1-2.3114-1-0.675-1-1.5-0.4151-1.5-0.9224-1.5c-0.5074 0-1.4423-1.575-2.0776-3.5s-1.559-3.5-2.0526-3.5c-1.0705 0-4.9474-8.2113-4.9474-10.479 0-0.8738-1.35-2.9083-3-4.5212s-3-3.8922-3-5.0651-1.2375-3.3392-2.75-4.8141c-3.2113-3.1315-4.8621-5.5628-6.3623-9.3708-0.5958-1.5125-1.4893-2.75-1.9855-2.75s-0.9022-0.9-0.9022-2-0.45-2-1-2-1-0.9-1-2-0.4151-2-0.9224-2c-0.5074 0-1.4423-1.575-2.0776-3.5s-1.5214-3.5-1.9691-3.5c-0.4478 0-1.0964-1.125-1.4415-2.5s-1.0689-2.5-1.6085-2.5c-0.5395 0-0.9809-0.5757-0.9809-1.2792 0-0.7036-0.9-1.928-2-2.7208s-2-2.4369-2-3.6534c0-1.3336-0.7941-2.4639-2-2.8466-1.1-0.3491-2-1.5045-2-2.5674s-0.45-1.9326-1-1.9326-1-0.675-1-1.5-0.45-1.5-1-1.5-1-1.125-1-2.5-0.4821-2.5-1.0714-2.5c-1.3452 0-3.9286-2.5286-3.9286-3.8452 0-0.5435-0.3801-1.1381-0.8447-1.3215-0.4646-0.1833-1.4771-1.4859-2.25-2.8946-3.6711-6.6908-7.778-12.506-11.655-16.504-2.3375-2.4101-4.25-4.6786-4.25-5.0411 0-0.8975-4.1003-4.3936-5.153-4.3936-0.4659 0-0.847-1.125-0.847-2.5 0-1.7856-0.5406-2.5-1.8916-2.5-1.1837 0-2.1264-0.9356-2.519-2.5-0.3451-1.375-1.2939-2.5-2.1085-2.5-0.8145 0-1.4809-0.9-1.4809-2s-0.45-2-1-2-1-0.5757-1-1.2792c0-0.7036-0.9-1.928-2-2.7208s-2-2.0172-2-2.7208c0-0.7035-0.3811-1.2792-0.847-1.2792-1.3302 0-5.153-3.6108-5.153-4.8673 0-0.623-0.45-1.1327-1-1.1327s-1-0.675-1-1.5-0.6447-1.5-1.4326-1.5-1.7183-0.9-2.0674-2-1.0545-2-1.5674-2-0.9326-0.6447-0.9326-1.4326-0.877-1.711-1.9488-2.0512c-1.0719-0.3402-2.2235-1.4837-2.5592-2.5413-0.3356-1.0575-1.7086-2.7867-3.0511-3.8427s-2.4409-2.3875-2.4409-2.9587c0-0.5713-0.9-1.3244-2-1.6735s-2-1.2491-2-2-0.9-1.6509-2-2-2-1.5045-2-2.5674c0-1.2659-0.6899-1.9326-2-1.9326-1.1 0-2-0.4197-2-0.9326s-0.9-1.2183-2-1.5674-2-1.452-2-2.4508c0-0.9987-0.9-2.0513-2-2.3389-1.1-0.2877-2-1.2099-2-2.0493s-0.9-1.8119-2-2.161-2-1.4959-2-2.5483c0-1.1998-0.9192-2.1443-2.4642-2.5321-1.3553-0.3401-2.7-1.3615-2.9882-2.2697-0.2883-0.9082-1.8794-2.2512-3.5359-2.9844-1.6564-0.7332-3.0117-1.9021-3.0117-2.5974 0-0.6954-1.8-2.076-4-3.0681s-4-2.2175-4-2.7233c0-1.261-2.6168-3.7767-3.9286-3.7767-0.5893 0-1.0714-0.8914-1.0714-1.9809 0-1.3254-0.9069-2.2086-2.7401-2.6687-2.9474-0.7398-5.2599-2.5914-5.2599-4.2116 0-0.5522-0.9-1.2897-2-1.6388s-2-1.0545-2-1.5674-0.675-0.9326-1.5-0.9326-1.5-0.4012-1.5-0.8916-1.125-1.1739-2.5-1.519c-1.6142-0.4052-2.5-1.3294-2.5-2.6085 0-1.5343-0.6763-1.9809-3-1.9809-2 0-3-0.5-3-1.5 0-0.8333-0.8889-1.5-2-1.5-1.1 0-2-0.4197-2-0.9326s-0.9-1.2183-2-1.5674-2-1.2399-2-1.9795c0-0.7895-1.6514-1.6237-4-2.0205-2.2-0.3717-4-1.1184-4-1.6593 0-1.6879-2.7626-3.8407-4.9286-3.8407-1.1746 0-2.0714-0.6494-2.0714-1.5 0-0.825-0.675-1.5-1.5-1.5s-1.5-0.45-1.5-1-1.35-1-3-1c-1.8758 0-3-0.5142-3-1.3722 0-0.8276-1.5875-1.626-4-2.0118-2.2-0.3518-4-1.0843-4-1.6278s-0.9-0.9882-2-0.9882-2-0.6354-2-1.4121c0-0.8684-1.5417-1.6726-4.0042-2.0886-2.2024-0.3721-3.7508-1.0867-3.441-1.5879 0.3098-0.5013-0.5883-0.9114-1.9958-0.9114-1.608 0-2.559-0.5574-2.559-1.5 0-0.8333-0.8889-1.5-2-1.5-1.1 0-2-0.45-2-1s-0.9-1-2-1c-1.1111 0-2-0.6667-2-1.5 0-1.1333-1.2222-1.5-5-1.5-2.75 0-5-0.45-5-1s-1.35-1-3-1c-2 0-3-0.5-3-1.5s-1-1.5-3-1.5c-1.65 0-3-0.45-3-1s-0.9-1-2-1-2-0.4228-2-0.9394c0-0.5167-3.15-1.2499-7-1.6293-3.85-0.3793-7-1.0816-7-1.5605s-1.35-0.8708-3-0.8708c-2 0-3-0.5-3-1.5 0-1.0476-1.0556-1.5-3.5-1.5-1.925 0-3.5-0.45-3.5-1s-2.2125-1-4.9167-1c-2.7041 0-5.0666-0.4327-5.25-0.9616-0.1833-0.5289-5.8458-1.2714-12.583-1.65-6.7375-0.3787-12.25-1.071-12.25-1.5384 0-0.4675-14.175-0.85-31.5-0.85s-31.5 0.3812-31.5 0.847c0 0.4659-5.2875 1.1732-11.75 1.5719-6.4625 0.3986-12.312 0.7674-13 0.8196-0.6875 0.052-1.25 0.4698-1.25 0.9282 0 0.4583-1.8 0.8333-4 0.8333s-4 0.45-4 1-1.8 1-4 1c-2.8889 0-4 0.4167-4 1.5 0 1-1 1.5-3 1.5-1.65 0-3 0.3919-3 0.8708s-3.15 1.1812-7 1.5605c-3.85 0.3794-7 1.1126-7 1.6293 0 0.5166-1.125 0.9394-2.5 0.9394s-2.5 0.45-2.5 1-0.9 1-2 1c-1.1111 0-2 0.6667-2 1.5 0 0.9333-0.9444 1.5-2.5 1.5-1.375 0-2.5 0.45-2.5 1s-2.025 1-4.5 1c-3.3333 0-4.5 0.3889-4.5 1.5 0 0.8333-0.8889 1.5-2 1.5-1.1 0-2 0.45-2 1s-1.125 1-2.5 1c-1.5556 0-2.5 0.5667-2.5 1.5 0 0.825-0.675 1.5-1.5 1.5s-1.5 0.4104-1.5 0.9121-1.8 1.2162-4 1.5879c-2.4592 0.4155-4 1.2197-4 2.0879 0 0.7767-0.675 1.4121-1.5 1.4121s-1.5 0.3999-1.5 0.8887-1.575 1.1842-3.5 1.5453c-2.0951 0.3931-3.5 1.2405-3.5 2.1113 0 0.9497-1.0415 1.4547-3 1.4547-1.65 0-3 0.45-3 1s-0.675 1-1.5 1-1.5 0.675-1.5 1.5-0.675 1.5-1.5 1.5-1.5 0.45-1.5 1-0.675 1-1.5 1-1.5 0.6262-1.5 1.3916-1.125 1.6739-2.5 2.019-2.5 1.2854-2.5 2.0894-1.233 1.7714-2.7401 2.1496c-2.9917 0.7509-5.2599 2.5961-5.2599 4.279 0 0.5893-0.9 1.0714-2 1.0714-1.3333 0-2 0.6667-2 2 0 1.2961-0.6667 2-1.8942 2-1.0419 0-3.3395 1.35-5.1058 3s-3.6139 3-4.1058 3c-0.4918 0-0.8942 0.4821-0.8942 1.0714 0 1.4171-2.5572 3.9286-4 3.9286-1.3342 0-4 2.4711-4 3.7078 0 0.4679-0.9 1.4994-2 2.2922s-2 1.9488-2 2.5689c0 0.62-1.8 1.939-4 2.9311s-4 2.3801-4 3.0845-0.9 1.5664-2 1.9155-2 1.1142-2 1.7001c0 1.205-3.8594 4.7999-5.153 4.7999-0.46584 0-0.84699 0.9-0.84699 2s-0.45 2-1 2-1 0.9-1 2-0.40241 2-0.89424 2c-0.49184 0-2.3394 1.35-4.1058 3s-3.5306 3-3.9205 3c-0.38997 0-1.4601 1.575-2.3781 3.5s-2.1263 3.5-2.6852 3.5-1.0162 0.675-1.0162 1.5-0.46412 1.5-1.0314 1.5c-0.56727 0-1.3193 0.7875-1.6712 1.75s-1.8003 2.9896-3.2186 4.5046c-4.851 5.1816-6.0788 6.746-6.0788 7.7454 0 0.55-0.36665 1-0.81479 1-0.44813 0-1.5658 1.575-2.4838 3.5s-2.1263 3.5-2.6852 3.5-1.0162 0.5109-1.0162 1.1353c0 0.6245-1.1173 2.1708-2.4829 3.4364-1.3656 1.2656-3.436 4.1297-4.601 6.3647-1.1649 2.235-2.5226 4.0636-3.0171 4.0636s-0.89903 0.675-0.89903 1.5-0.41968 1.5-0.93261 1.5c-0.51294 0-1.2523 1.0125-1.643 2.25s-1.5461 2.9778-2.5674 3.8673c-1.0213 0.8895-1.857 2.0895-1.857 2.6667 0 0.5771-0.39133 1.1993-0.86963 1.3827-1.1323 0.434-16.13 24.406-16.13 25.782 0 0.5785-0.44143 1.0518-0.98095 1.0518s-1.2633 1.125-1.6084 2.5c-0.3451 1.375-0.99377 2.5-1.4415 2.5-0.44772 0-1.3338 1.575-1.9691 3.5s-1.4813 3.5-1.88 3.5c-0.39869 0-1.534 2.25-2.5229 5-0.98888 2.75-2.2028 5-2.6975 5s-0.89957 0.9-0.89957 2-0.45 2-1 2-1 0.8007-1 1.7792c0 0.9786-0.9 2.428-2 3.2208s-2 2.4672-2 3.7208c0 1.2535-0.45 2.2792-1 2.2792s-1 0.675-1 1.5-0.45 1.5-1 1.5-1 1.125-1 2.5-0.45 2.5-1 2.5-1 0.675-1 1.5-0.45 1.5-1 1.5-1 0.9-1 2-0.45 2-1 2-1 0.9-1 2-0.45 2-1 2-1 1.125-1 2.5-0.45 2.5-1 2.5-1 0.675-1 1.5-0.45 1.5-1 1.5-1 0.675-1 1.5-0.45 1.5-1 1.5-1 1.0257-1 2.2792c0 1.2536-0.9 2.928-2 3.7208-1.3003 0.9372-2 2.5887-2 4.7208 0 1.8035-0.45 3.2792-1 3.2792s-1 0.675-1 1.5-0.45 1.5-1 1.5-1 0.675-1 1.5-0.45 1.5-1 1.5-1 1.0257-1 2.2792c0 1.2536-0.9 2.928-2 3.7208-1.1745 0.8465-2 2.5887-2 4.2208 0 1.5285-0.45 2.7792-1 2.7792s-1 0.9-1 2-0.45 2-1 2-1 0.9-1 2-0.45 2-1 2-1 1.125-1 2.5-0.45 2.5-1 2.5c-1.9446 0-1.0636 4.845 1 5.5 1.5534 0.493 2 1.513 2 4.5674 0 2.1629-0.45 3.9326-1 3.9326s-1 0.675-1 1.5c0 0.8333-0.88889 1.5-2 1.5-1.1 0-2 0.45-2 1s-1.35 1-3 1c-2 0-3 0.5-3 1.5 0 0.825-0.45 1.5-1 1.5s-1 0.9-1 2-0.45 2-1 2-1 1.125-1 2.5-0.45 2.5-1 2.5-1 1.125-1 2.5-0.45 2.5-1 2.5-1 1.125-1 2.5-0.45 2.5-1 2.5-1 1.125-1 2.5-0.45 2.5-1 2.5-1 1.125-1 2.5-0.45 2.5-1 2.5-1 1.125-1 2.5-0.45 2.5-1 2.5-1 0.9061-1 2.0136c0 1.1074-0.3975 2.7949-0.88333 3.75-0.48583 0.955-1.4383 3.0864-2.1167 4.7364s-1.6308 3.7814-2.1167 4.7364c-0.48583 0.9551-0.88333 2.3625-0.88333 3.1276s-0.62793 1.9122-1.3954 2.5492c-0.76747 0.6369-1.6982 2.7724-2.0684 4.7455-0.37016 1.9732-1.0922 4.4321-1.6046 5.4644-0.51237 1.0323-1.3816 2.7708-1.9316 3.8633-0.55 1.0926-1 2.6676-1 3.5 0 0.8325-0.45 1.5136-1 1.5136s-1 1.125-1 2.5-0.45 2.5-1 2.5-1 0.6462-1 1.436c0 1.56-5.1607 15.578-8.1468 22.13-1.0192 2.2362-1.8532 4.7235-1.8532 5.5275s-0.61495 2.3494-1.3666 3.4343c-0.7516 1.0849-2.4026 4.8975-3.6689 8.4725-1.2663 3.575-2.6528 6.9677-3.0811 7.5394-0.42831 0.5716-1.2232 2.8216-1.7664 5-0.87072 3.4916-2.6279 8.5792-10.866 31.461-2.2435 6.2314-2.2343 6.2045-10.196 30-7.7796 23.25-10.055 30.868-10.055 33.668 0 1.2824-0.45 2.3316-1 2.3316s-1 1.125-1 2.5-0.45 2.5-1 2.5-1 1.575-1 3.5-0.45 3.5-1 3.5-1 1.125-1 2.5-0.45 2.5-1 2.5-1 1.8-1 4-0.45 4-1 4-1 1.575-1 3.5-0.45 3.5-1 3.5-1 1.125-1 2.5-0.45 2.5-1 2.5-1 1.8-1 4-0.45 4-1 4-1 1.575-1 3.5-0.45 3.5-1 3.5-1 1.8-1 4-0.45 4-1 4-1 1.125-1 2.5-0.45 2.5-1 2.5-1 1.575-1 3.5-0.45 3.5-1 3.5-1 2.25-1 5-0.45 5-1 5-1 1.125-1 2.5-0.45 2.5-1 2.5-1 1.575-1 3.5-0.45 3.5-1 3.5-1 1.8-1 4-0.45 4-1 4-1 1.575-1 3.5-0.45 3.5-1 3.5-1 1.8-1 4-0.45 4-1 4-1 1.575-1 3.5-0.45 3.5-1 3.5-1 1.8-1 4-0.45 4-1 4-1 2.25-1 5-0.45 5-1 5-1 1.575-1 3.5-0.45 3.5-1 3.5-1 1.575-1 3.5-0.45 3.5-1 3.5-1 1.575-1 3.5-0.45 3.5-1 3.5-1 1.8-1 4-0.45 4-1 4-1 2.025-1 4.5-0.45 4.5-1 4.5-1 1.5184-1 3.3743c0 1.8558-0.62991 5.1596-1.3998 7.3417-0.76989 2.1821-2.3391 8.4262-3.4871 13.876-2.0992 9.9646-4.813 22.131-9.6822 43.408-1.4475 6.325-3.6736 16.45-4.9468 22.5-5.2917 25.144-8.2631 38.334-8.8499 39.283-1.3729 2.2214-22.397 108.17-36.16 182.22-13.876 74.661-28.964 167.62-35.87 221-1.3875 10.725-2.785 21.525-3.1054 24s-0.83228 8.6625-1.1374 13.75c-0.30514 5.0875-0.96136 9.25-1.4583 9.25s-0.90347 4.05-0.90347 9c0 5.3333-0.40741 9-1 9-0.59649 0-1 3.8333-1 9.5s-0.40351 9.5-1 9.5c-0.6087 0-1 4.5-1 11.5s-0.3913 11.5-1 11.5c-0.61111 0-1 4.6667-1 12s-0.38889 12-1 12c-0.62515 0-1 6.0197-1 16.059 0 10.451-0.34919 15.843-1 15.441-0.65457-0.4045-1 6.6563-1 20.441 0 13.373-0.36499 21.059-1 21.059-0.65507 0-1 19.833-1 57.5s-0.34493 57.5-1 57.5c-0.65957 0-1 32-1 94s-0.34043 94-1 94c-0.6455 0-1 11.167-1 31.5s0.3545 31.5 1 31.5c0.55 0 1-2.25 1-5zm1095.2-1425.5c-2.2729-2.4276-3.1649-8.4746-1.25-8.4746 0.55 0 1-0.7918 1-1.7595s0.9175-2.3324 2.0388-3.0327c1.1213-0.7002 1.8014-1.6573 1.5113-2.1268-0.2902-0.4695 0.4007-1.0964 1.5354-1.3931 1.1346-0.2967 2.297-1.4348 2.5832-2.529 0.2861-1.0942 1.6027-2.2612 2.9258-2.5933 1.4619-0.3669 2.4055-1.3332 2.4055-2.4633 0-1.1235 1.1876-2.3516 3-3.1023 1.65-0.6835 3-1.7637 3-2.4006 0-0.6368 0.9-1.8066 2-2.5994s2-1.9449 2-2.5602 1.125-1.6314 2.5-2.2578c1.375-0.6265 2.5-1.8238 2.5-2.6606s0.4821-1.5214 1.0714-1.5214c1.1655 0 3.9286-2.4617 3.9286-3.5 0-0.8707 2.6821-3.5 3.5703-3.5 0.3922 0 2.0033-1.35 3.5801-3 1.5769-1.65 3.3131-3 3.8583-3s0.9913-0.9 0.9913-2c0-1.1111 0.6667-2 1.5-2 0.825 0 1.5-0.675 1.5-1.5s0.675-1.5 1.5-1.5 1.5-0.4197 1.5-0.9326 0.9-1.2183 2-1.5674 2-1.5045 2-2.5674 0.3833-1.9326 0.8517-1.9326c1.4278 0 6.9204-5.7066 7.6229-7.92 0.3631-1.144 1.0949-2.08 1.6261-2.08 0.5313 0 2.5015-1.4625 4.3782-3.25s3.9992-3.7573 4.7167-4.3774c1.806-1.5608 4.8044-5.2776 4.8044-5.9555 0-0.9722 2.8108-3.4171 3.9286-3.4171 0.5893 0 1.0714-0.4235 1.0714-0.9412 0-0.5176 2.2156-3.3301 4.9235-6.25 7.4685-8.0529 8.0765-8.7611 8.0765-9.4076 0-0.3293 1.35-1.8599 3-3.4012s3-3.2969 3-3.9012 0.675-1.0988 1.5-1.0988 1.5-0.4821 1.5-1.0714 0.6429-1.7143 1.4286-2.5 1.9107-1.4286 2.5-1.4286 1.0714-0.6712 1.0714-1.4915c0-0.8204 0.9-2.0536 2-2.7406 1.1-0.6869 2-1.9647 2-2.8395 0-0.8747 1.0852-2.1712 2.4115-2.8811 1.5094-0.8078 2.6447-2.5333 3.0348-4.6126 0.3888-2.0724 1.3624-3.5566 2.5884-3.9457 1.0809-0.3431 1.9653-1.0435 1.9653-1.5564s0.6249-0.9326 1.3887-0.9326c0.7783 0 1.6598-1.4451 2.0055-3.2876 0.4152-2.2133 1.5953-3.8657 3.6113-5.0566 1.647-0.9729 2.9945-2.5674 2.9945-3.5434 0-0.9759 1.068-2.346 2.3733-3.0446 1.3527-0.7239 2.9431-2.9965 3.6981-5.2842 0.7286-2.2078 2.1356-4.5205 3.1267-5.1394 0.991-0.6189 1.8019-2.142 1.8019-3.3847 0-1.3289 0.61-2.2595 1.4809-2.2595 0.8146 0 1.7634-1.125 2.1085-2.5s1.2048-2.5 1.9106-2.5 1.5655-1.125 1.9106-2.5 1.0689-2.5 1.6085-2.5c0.5395 0 0.9809-0.675 0.9809-1.5s0.4414-1.5 0.9809-1.5c0.5396 0 1.2634-1.125 1.6085-2.5s0.9846-2.5 1.4212-2.5 1.2664-1.3559 1.8442-3.0132c0.5777-1.6572 1.7467-3.2804 2.5978-3.607s1.5474-1.4456 1.5474-2.4868c0-1.0411 0.45-1.893 1-1.893s1-0.9 1-2 0.6139-2 1.3641-2c0.7503 0 2.1605-2.0852 3.1339-4.6338 0.9733-2.5486 2.6094-5.4736 3.6358-6.5s1.8662-2.5412 1.8662-3.3662 0.45-1.5 1-1.5 1-0.8 1-1.7778c0-0.9777 0.9-2.5483 2-3.4902 1.1-0.9418 2-2.3918 2-3.2222s0.45-1.5098 1-1.5098 1-0.675 1-1.5 0.45-1.5 1-1.5 1-0.5238 1-1.164c0-2.3769 3.4301-8.836 4.6924-8.836 0.7281 0 1.3076-1.108 1.3076-2.5 0-1.375 0.45-2.5 1-2.5s1-0.675 1-1.5 0.45-1.5 1-1.5 1-1.125 1-2.5 0.45-2.5 1-2.5 1-0.9 1-2 0.45-2 1-2 1-0.5058 1-1.124c0-0.6183 1.8-4.7204 4-9.1158 2.2-4.3955 4-8.5153 4-9.1552s0.9-1.8122 2-2.605 2-2.4672 2-3.7208c0-1.2535 0.45-2.2792 1-2.2792s1-0.9 1-2 0.45-2 1-2 1-0.9 1-2 0.45-2 1-2 1-0.675 1-1.5 0.3911-1.5 0.8692-1.5c0.478 0 1.1352-1.6398 1.4605-3.644 0.7148-4.4048 3.8784-12.347 4.9203-12.352 0.4125 0 0.75-0.9037 0.75-2.0037s0.3975-2 0.8834-2 1.1074-1.0125 1.3811-2.25c0.8982-4.0609 4.2119-12.229 5.3752-13.25 0.6268-0.55 1.6755-2.6916 2.3305-4.7591 0.655-2.0676 1.7213-4.3176 2.3695-5 0.6482-0.6825 1.7624-3.4801 2.476-6.2169 0.7136-2.7367 1.6742-5.2117 2.1346-5.5 0.4604-0.2882 1.4373-3.1115 2.1708-6.274s1.6813-5.75 2.1063-5.75c0.4249 0 0.7726-1.0401 0.7726-2.3114s0.9-3.2775 2-4.4582 2-2.7149 2-3.4093c0-2.6849 2.4943-11.821 3.2274-11.821 0.4249 0 0.7726-1.125 0.7726-2.5s0.3649-2.5 0.811-2.5c0.446 0 1.3876-2.25 2.0924-5s1.6898-5 2.189-5 0.9076-1.125 0.9076-2.5 0.45-2.5 1-2.5 1.002-1.0125 1.0044-2.25c0-1.2375 1.1179-5.4 2.4789-9.25s2.484-7.7875 2.4956-8.75c0.012-0.9625 0.6961-1.75 1.5211-1.75 1 0 1.5-1 1.5-3 0-1.65 0.4043-3 0.8985-3s1.2149-3.15 1.6015-7c0.4751-4.7306 1.126-7 2.0077-7 0.8072 0 1.5668-1.9063 1.9923-5 0.3782-2.75 1.0954-5 1.5938-5s0.9062-1.125 0.9062-2.5 0.45-2.5 1-2.5 1-1.125 1-2.5 0.45-2.5 1-2.5 1-1.4094 1-3.132c0-1.7225 0.8622-4.535 1.916-6.25 1.0539-1.7149 2.2259-4.7895 2.6046-6.8324 0.3788-2.0429 1.3165-4.2355 2.084-4.8724 0.7675-0.637 1.3954-2.228 1.3954-3.5356 0-1.3077 0.45-2.3776 1-2.3776s1-1.125 1-2.5 0.4003-2.5 0.8896-2.5 1.4876-2.025 2.2183-4.5c0.7308-2.475 1.6805-4.5 2.1104-4.5s0.7817-0.8151 0.7817-1.8114 0.8016-2.6838 1.7813-3.75 2.3477-3.8511 3.0401-6.1886 1.6908-4.25 2.2187-4.25c0.528 0 0.9599-0.5276 0.9599-1.1724 0-2.2652 3.5138-8.7763 4.75-8.8018 0.6875-0.014 1.25-0.5469 1.25-1.1838 0-2.2954 5.5287-12.794 6.75-12.818 0.6875-0.013 1.25-0.6992 1.25-1.5242s0.45-1.5 1-1.5 1-0.9 1-2 0.4012-2 0.8916-2 1.1739-1.125 1.519-2.5 1.2939-2.5 2.1085-2.5c0.8145 0 1.4809-0.6965 1.4809-1.5477 0-0.8513 1.046-2.5388 2.3245-3.75 1.2785-1.2113 2.6144-2.9898 2.9686-3.9523 0.3543-0.9625 1.1083-1.75 1.6755-1.75 0.5673 0 1.0314-0.4715 1.0314-1.0477 0-0.5763 1.125-2.0904 2.5-3.3647s2.5-2.7975 2.5-3.3849 0.8553-1.3394 1.9006-1.6711c1.0453-0.3318 2.1714-1.6822 2.5023-3.0008 0.331-1.3186 1.5007-2.6828 2.5994-3.0315 1.0987-0.3488 1.9977-1.2484 1.9977-1.9993s0.9-1.6509 2-2 2-1.1142 2-1.7001c0-1.205 3.8594-4.7999 5.153-4.7999 0.4659 0 0.847-0.6262 0.847-1.3916s1.125-1.6739 2.5-2.019 2.5-1.0689 2.5-1.6084 0.675-0.98095 1.5-0.98095 1.5-0.62622 1.5-1.3916c0-0.76538 1.125-1.674 2.5-2.019 1.375-0.34511 2.5-1.2451 2.5-2 0-0.7549 1.125-1.6549 2.5-2 1.375-0.34511 2.5-1.0689 2.5-1.6084s0.675-0.98095 1.5-0.98095 1.5-0.62492 1.5-1.3887c0-0.79536 1.4954-1.6692 3.5-2.0453 2.0951-0.39304 3.5-1.2405 3.5-2.1113 0-0.80008 0.675-1.4547 1.5-1.4547s1.5-0.41425 1.5-0.92054c0-0.5063 1.35-1.2171 3-1.5795s3-1.2778 3-2.0341c0-0.77996 1.515-1.6594 3.5-2.0318 2.0046-0.37606 3.5-1.25 3.5-2.0453 0-0.81462 1.0335-1.3887 2.5-1.3887 1.375 0 2.5-0.41045 2.5-0.9121 0-0.50166 1.8-1.2162 4-1.5879 2.2662-0.38287 4-1.2387 4-1.9744 0-0.7724 1.8234-1.572 4.5-1.9734 2.9355-0.4402 4.5-1.175 4.5-2.1135 0-0.93192 1.0568-1.4387 3-1.4387 1.65 0 3-0.40582 3-0.90181 0-0.496 2.7-1.2152 6-1.5982 3.9088-0.45367 6-1.1507 6-2s2.0912-1.5463 6-2c3.3-0.38301 6-1.1022 6-1.5982 0-0.49599 2.025-0.90181 4.5-0.90181 3.1452 0 4.5-0.41277 4.5-1.371 0-1.0076 2.3853-1.5576 9-2.0751 6.7932-0.53142 9-1.0534 9-2.129 0-1.0852 1.5299-1.4249 6.4167-1.4249 3.6361 0 6.5699-0.45991 6.7704-1.0613 0.414-1.242 60.199-2.6515 66.034-1.5569 4.3344 0.81314 5.4283 3.1193 3.8081 8.0285-1.353 4.0998-2.7834 4.5582-14.28 4.5761-6.7101 0.0105-8.75 0.33115-8.75 1.3756 0 1.0725-3.8593 1.5166-18.161 2.0898-12.627 0.50609-18.553 1.1198-19.448 2.0142-0.8315 0.83149-3.4448 1.1971-7.3912 1.0341-3.873-0.15999-6.5637 0.20651-7.3596 1.0025-0.6954 0.69538-5.3812 1.5813-10.512 1.9874-6.77 0.53582-9.1284 1.0683-8.7778 1.9819 0.3455 0.90047-1.6604 1.4299-7.1857 1.8964-4.2158 0.35594-7.8151 1.0937-7.9984 1.6396-0.1834 0.54582-1.8709 0.99239-3.75 0.99239-2.264 0-3.4167 0.47292-3.4167 1.4018 0 0.96929-1.8513 1.6167-6 2.0982-3.9202 0.45499-6 1.1498-6 2.0044 0 0.81121-1.899 1.5692-5 1.9956-2.75 0.37822-5 1.0954-5 1.5938s-0.9 0.90616-2 0.90616-2 0.64743-2 1.4387c0 0.93852-1.5645 1.6733-4.5 2.1135-2.8451 0.42664-4.5 1.1847-4.5 2.0613 0 0.76255-0.9 1.3865-2 1.3865s-2 0.42961-2 0.95469c0 0.52507-1.575 1.2502-3.5 1.6113s-3.5 1.2458-3.5 1.9659-1.35 1.6058-3 1.9682-3 1.2982-3 2.0795c0 0.78129-0.675 1.4205-1.5 1.4205s-1.5 0.41425-1.5 0.92054c0 0.5063-1.35 1.2171-3 1.5795s-3 1.2494-3 1.971c0 0.7217-1.125 1.5945-2.5 1.9396s-2.5 1.0689-2.5 1.6085c0 0.5395-0.675 0.9809-1.5 0.9809s-1.5 0.6664-1.5 1.4809c0 0.8146-1.125 1.7634-2.5 2.1085s-2.5 1.2233-2.5 1.9516-0.9 1.6099-2 1.959-2 1.0545-2 1.5674-0.675 0.9326-1.5 0.9326-1.5 0.6262-1.5 1.3916-1.0752 1.6615-2.3894 1.9913c-1.425 0.3576-2.6368 1.5854-3.0023 3.0417-0.3371 1.3432-1.5119 2.7274-2.6106 3.0761-1.0987 0.3488-1.9977 1.2788-1.9977 2.0667s-0.4641 1.4326-1.0314 1.4326c-0.5672 0-1.3235 0.7875-1.6806 1.75-0.7263 1.9578-4.1383 5.25-5.441 5.25-0.4659 0-0.847 0.6891-0.847 1.5314 0 0.8422-0.6436 1.7783-1.4301 2.0802-0.7866 0.3018-1.8882 1.8627-2.448 3.4686s-1.4913 2.9198-2.0699 2.9198-1.052 0.6794-1.052 1.5098-0.9 2.2804-2 3.2222c-1.1 0.9419-2 2.5125-2 3.4902 0 0.9778-0.5625 1.7869-1.25 1.7981-0.6875 0.011-2.2712 2.2612-3.5193 5s-2.6748 4.9797-3.1705 4.9797-1.1978 1.35-1.5602 3-0.9633 3-1.3353 3c-0.9142 0-5.1647 9.3754-5.1647 11.392 0 0.8845-0.45 1.6082-1 1.6082s-1 0.6375-1 1.4167c0 0.7791-0.3538 1.5666-0.7862 1.75-1.1521 0.4884-7.2138 13.087-7.2138 14.993 0 0.8946-0.675 1.8855-1.5 2.2021s-1.5 1.6597-1.5 2.9846-0.675 2.9691-1.5 3.6538-1.5 2.3148-1.5 3.6224c0 1.3077-0.45 2.3776-1 2.3776s-1 1.0984-1 2.441c0 1.3425-0.45 2.7191-1 3.059s-1 1.4915-1 2.559c0 1.0676-0.45 1.941-1 1.941s-1 1.125-1 2.5-0.45 2.5-1 2.5-1 1.6347-1 3.6327c0 2.2795-0.6871 4.2352-1.8446 5.25-1.7201 1.5082-2.4403 3.4579-3.8295 10.367-0.3041 1.5125-0.9123 2.75-1.3515 2.75s-1.1027 1.8-1.4744 4-0.9923 4-1.3791 4-1.5766 3.1879-2.644 7.0843c-1.0673 3.8963-2.2863 7.2979-2.7088 7.559-0.4224 0.2611-0.7681 1.5732-0.7681 2.9157 0 1.3426-0.45 2.441-1 2.441s-1 1.575-1 3.5-0.45 3.5-1 3.5-1 1.35-1 3-0.45 3-1 3-1 1.575-1 3.5-0.5025 3.5-1.1166 3.5c-0.6518 0-0.9176 1.0407-0.6386 2.5 0.2877 1.5051 0.016 2.5-0.6827 2.5-0.7375 0-1.0115 1.2759-0.7519 3.5 0.2501 2.1423-0.022 3.5-0.7008 3.5-0.6102 0-1.1094 1.125-1.1094 2.5s-0.45 2.5-1 2.5-1 1.125-1 2.5-0.3518 2.5-0.7817 2.5-1.4119 2.1375-2.1822 4.75-1.9724 5.3235-2.6714 6.0245c-0.699 0.7011-1.5752 3.9636-1.947 7.25-0.3718 3.2865-1.0679 5.9755-1.5469 5.9755-0.4789 0-0.8708 0.675-0.8708 1.5s-0.4324 1.5-0.9608 1.5-1.5185 2.7-2.2001 6-1.5992 6-2.0392 6c-0.4399 0-0.7999 1.35-0.7999 3 0 1.8908-0.5126 3-1.3865 3-0.8798 0-1.637 1.6708-2.072 4.5721-0.3771 2.5146-1.5532 5.4396-2.6136 6.5-1.0603 1.0603-1.9279 2.8279-1.9279 3.9279s-0.3596 2-0.7991 2c-0.9369 0-3.2009 5.8855-3.2009 8.321 0 0.9234-0.45 1.679-1 1.679s-1 0.8734-1 1.941c0 1.0675-0.45 2.2191-1 2.559s-1 1.7165-1 3.059c0 1.3426-0.4209 2.441-0.9353 2.441s-1.5048 1.575-2.2009 3.5c-0.696 1.925-1.6252 3.5-2.0647 3.5s-0.7991 0.675-0.7991 1.5-0.45 1.5-1 1.5-1 0.6641-1 1.4758-0.8983 2.9492-1.9963 4.75c-1.0979 1.8008-1.9979 4.5117-2 6.0242 0 1.5125-0.4537 2.75-1.0037 2.75s-1 0.6938-1 1.5418-0.8318 2.4347-1.8485 3.526c-1.0167 1.0912-2.4387 3.7724-3.1601 5.9582-0.7213 2.1857-1.6895 3.974-2.1515 3.974-0.4619 0-0.8399 0.675-0.8399 1.5s-0.45 1.5-1 1.5-1 1.4757-1 3.2792c0 2.1321-0.6997 3.7836-2 4.7208-1.1 0.7928-2 2.0172-2 2.7208 0 0.7035-0.45 1.2792-1 1.2792s-1 1.0769-1 2.393c0 1.3162-0.5628 2.609-1.2507 2.873-0.688 0.264-3.0505 4.0184-5.25 8.3431-2.1996 4.3248-4.7868 8.5972-5.7493 9.4944-0.9625 0.8971-1.75 2.5908-1.75 3.7638s-0.45 2.1327-1 2.1327-1 0.675-1 1.5-0.45 1.5-1 1.5-1 1.125-1 2.5c0 1.392-0.5795 2.5-1.3076 2.5-1.2623 0-4.6924 6.4591-4.6924 8.836 0 0.6402-0.45 1.164-1 1.164s-1 0.6965-1 1.5477c0 0.8513-1.0625 2.5388-2.361 3.75-1.2986 1.2113-2.6789 3.2148-3.0674 4.4523s-1.0773 2.25-1.5306 2.25-1.1065 1.125-1.4516 2.5-1.2939 2.5-2.1085 2.5c-0.8145 0-1.4809 0.675-1.4809 1.5s-0.45 1.5-1 1.5-1 1.125-1 2.5-0.45 2.5-1 2.5-1 0.675-1 1.5-0.45 1.5-1 1.5-1 0.5757-1 1.2792c0 0.7036-0.9 1.928-2 2.7208s-2 2.0172-2 2.7208c0 0.7035-0.45 1.2792-1 1.2792s-1 0.8842-1 1.9648c0 1.0807-0.9 2.4465-2 3.0352s-2 1.9242-2 2.9678-0.899 2.1827-1.9977 2.5315c-1.0987 0.3487-2.2725 1.729-2.6084 3.0674-0.3359 1.3383-1.2369 2.4333-2.0023 2.4333s-1.3916 0.8746-1.3916 1.9435c0 1.0989-1.3037 2.7135-3 3.7156-1.65 0.9747-3 2.3501-3 3.0565s-0.45 1.2844-1 1.2844-1 0.9296-1 2.0657c0 2.6833-1.6518 5.7071-4.6205 8.4584-1.3087 1.2129-2.3795 2.7161-2.3795 3.3406 0 0.6244-0.6447 1.1353-1.4326 1.1353s-1.7525 1.0125-2.1434 2.25-2.4462 3.937-4.5674 5.9989c-2.1211 2.0619-3.8566 4.2053-3.8566 4.7631s-2.1685 3.1713-4.8188 5.8078c-2.6504 2.6364-5.1112 5.5555-5.4686 6.4868-0.3574 0.9314-1.114 1.6934-1.6812 1.6934-0.5673 0-1.0314 0.675-1.0314 1.5s-0.8697 1.5-1.9326 1.5c-1.127 0-2.2288 0.9379-2.6431 2.25-0.7291 2.3092-4.0666 5.75-5.5773 5.75-0.4659 0-0.847 0.4618-0.847 1.0263 0 0.8952-1.9584 3.1154-11.034 12.509-1.0815 1.1193-1.9663 2.5515-1.9663 3.1826s-0.877 1.4258-1.9488 1.766c-1.0719 0.3402-2.2243 1.4862-2.5609 2.5468-0.3366 1.0605-1.9346 2.7095-3.5512 3.6644-1.6165 0.9549-2.9391 2.3142-2.9391 3.0206s-0.9 1.2844-2 1.2844c-1.3333 0-2 0.6667-2 2 0 1.1-0.4461 2-0.9913 2s-2.2814 1.35-3.8583 3c-1.5768 1.65-3.1879 3-3.5801 3-0.9934 0-3.5703 2.6762-3.5703 3.7078 0 0.4679-0.9 1.4994-2 2.2922s-2 1.9073-2 2.4766c0 0.5694-1.35 1.6327-3 2.3631s-3 1.9106-3 2.6228-1.35 1.854-3 2.5375-3 1.8865-3 2.6733c0 0.7869-1.35 1.9014-3 2.4765-1.65 0.5752-3 1.6865-3 2.4695s-1.125 1.9362-2.5 2.5627c-1.375 0.6264-2.5 1.7529-2.5 2.5033 0 0.7503-1.125 1.7919-2.5 2.3147s-2.5 1.538-2.5 2.256-1.35 1.8151-3 2.4379-3 1.8465-3 2.7192c0 0.981-0.8627 1.5869-2.2595 1.5869-1.2427 0-2.8215 0.9-3.5084 2-0.687 1.1-1.9202 2-2.7406 2-0.8203 0-1.4915 0.675-1.4915 1.5s-0.5757 1.5-1.2792 1.5c-0.7036 0-1.928 0.9-2.7208 2-1.879 2.607-3.9695 2.4443-6.75-0.5254zm-377.25-490.39c-91.873-9.2983-176.49-52.87-237.57-122.34-124.75-141.87-122.05-354.38 6.2825-492.98 28.242-30.503 66.638-59.36 103.79-78.004 12.481-6.2632 39.654-17.399 54-22.131 41.598-13.719 90.93-19.556 136.5-16.152 109.97 8.2148 210.04 65.004 273.17 155.02 91.524 130.5 88.475 306.04-7.5184 432.92-59.18 78.222-148.12 129.78-246.15 142.69-22.443 2.9561-58.673 3.3826-82.5 0.9711zm77.5-21.214c125.56-14.752 234.94-99.41 281.09-217.57 33.872-86.713 31.857-181.08-5.6876-266.39-36.836-83.692-107.7-151.08-192.89-183.43-73.615-27.954-150.56-30.604-228.02-7.8545-55.789 16.385-109.27 49.859-151.25 94.669-80.432 85.857-112.02 209.18-82.663 322.7 33.882 131.01 139.29 229.37 272.64 254.43 35.9 6.7464 69.418 7.8252 106.77 3.4365z"/>
</svg>
