<?xml version="1.0" encoding="UTF-8"?>
<!-- Created with Inkscape (http://www.inkscape.org/) -->
<svg width="2194.2" height="3049.1" version="1.1" viewBox="0 0 2194.2 3049.1" xmlns="http://www.w3.org/2000/svg" xmlns:cc="http://creativecommons.org/ns#" xmlns:dc="http://purl.org/dc/elements/1.1/" xmlns:rdf="http://www.w3.org/1999/02/22-rdf-syntax-ns#">
 <metadata>
  <rdf:RDF>
   <cc:Work rdf:about="">
    <dc:format>image/svg+xml</dc:format>
    <dc:type rdf:resource="http://purl.org/dc/dcmitype/StillImage"/>
    <dc:title/>
   </cc:Work>
  </rdf:RDF>
 </metadata>
 <path d="m1054.3 857.95c-78.1-15.791-142.11-51.775-199.42-112.11-137.82-145.09-131.63-371.8 14.07-515.84 65.957-65.206 157.89-101.65 256.43-101.65 96.696 0 180.8 32.502 247.9 95.799 57.69 54.422 90.862 110.07 110.08 184.67 10.043 38.985 10.806 47.618 8.8021 99.574-1.5567 40.359-4.7327 65.348-10.93 86.006-41.381 137.92-149.58 237.43-286.69 263.66-38.934 7.4494-103.11 7.4005-140.24-0.1071zm-525.36 2057c-2.6359-6.8691 2.1526-142.32 15.295-432.63 10.064-222.31 15.11-303.58 23.235-374.21 10.504-91.316 13.948-131.35 26.979-313.59 6.9064-96.585 14.787-190.66 17.511-209.06 2.725-18.397 5.057-41.916 5.1823-52.265 0.19652-16.24-1.0211-18.993-8.8968-20.114-27.705-3.9442-88.887 56.344-182.02 179.36-108.86 143.79-228.66 350.31-263.86 454.83l-10.332 30.682-6.3868-28.653c-14.364-64.44-17.248-97.087-17.308-195.9-0.0662-109.66 4.6862-152.57 26.993-243.75 42.412-173.36 118.87-312.64 235.92-429.78 184.61-184.75 394.45-263.34 736.22-275.75 167.3-6.0732 282.11 13.963 399.03 69.639 208.23 99.16 335.28 266.85 463.68 612.05 51.993 139.77 86.6 275.16 72.553 283.84-6.0854 3.7609-32.051-28.338-114.67-141.76-157.04-215.59-191.43-250.82-440.32-451.17-8.1395-6.5519-11.85-7.1967-20.013-3.4774-5.5115 2.5112-10.867 8.9938-11.902 14.406-1.0345 5.4118 1.485 40.844 5.599 78.738 11.936 109.95 16.646 200 15.357 293.62-0.8517 61.856 0.1828 88.035 3.5608 90.123 5.0343 3.1114 14.459 44.789 21.934 96.999 17.14 119.71 17.226 372.02 0.1789 526.83-14.554 132.17-56.391 355.4-66.608 355.4-3.0406 0-42.687-87.86-150.94-334.49-94.574-215.47-172.49-347.04-205.54-347.04-24.529 0-121.68 124.25-250.95 320.95-184.77 281.15-222.25 337.37-261.93 392.99-40.562 56.842-52.061 67.471-57.542 53.187z" fill="#333f47" stroke="#000" stroke-linecap="round" stroke-linejoin="round" stroke-width="56.693"/>
</svg>
