<?xml version="1.0" encoding="UTF-8"?>
<!-- Created with Inkscape (http://www.inkscape.org/) -->
<svg width="1505.1" height="1471.4" version="1.1" viewBox="0 0 1505.1 1471.4" xmlns="http://www.w3.org/2000/svg" xmlns:cc="http://creativecommons.org/ns#" xmlns:dc="http://purl.org/dc/elements/1.1/" xmlns:rdf="http://www.w3.org/1999/02/22-rdf-syntax-ns#">
 <metadata>
  <rdf:RDF>
   <cc:Work rdf:about="">
    <dc:format>image/svg+xml</dc:format>
    <dc:type rdf:resource="http://purl.org/dc/dcmitype/StillImage"/>
    <dc:title/>
   </cc:Work>
  </rdf:RDF>
 </metadata>
 <path d="m994.46 1470.2c-12.523-4.4254-30.038-21.473-67.056-65.264-46.35-54.83-51.271-61.432-95.011-127.47-13.857-20.923-24.038-35.282-26.468-37.333-4.4801-3.7804-5.2321-7.8915-2.228-12.18 1.4457-2.064 98.65-115.75 116.28-135.99 3.1132-3.575 16.28-18.92 29.259-34.1s25.004-28.783 26.723-30.229c2.8636-2.4096 3.6414-2.5791 9.3222-2.0313 4.9272 0.4751 6.7827 1.162 9.0495 3.3499 2.7123 2.6181 2.864 3.2342 3.1088 12.632 0.3537 13.578 1.5735 36.431 2.0798 38.968 0.4086 2.047 1.1547 2.1119 37.688 3.2779 65.814 2.1004 140.18 4.0622 140.53 3.7075 0.4524-0.4525-5.0122-13.856-12.261-30.074-6.4811-14.5-49.738-100.63-63.78-127-17.715-33.262-30.697-55.079-74.586-125.35-12.285-19.668-22.362-36.86-22.718-38.761-0.3524-1.8786-1.0397-3.6622-1.5274-3.9636-1.395-0.8621-1.036-7.2403 0.5838-10.373 2.0992-4.0594 10.125-9.6305 23.992-16.654 35.949-18.207 52.211-26.784 57.331-30.24 3.1386-2.1185 10.87-6.6951 17.18-10.17 16.333-8.9945 31.463-18.25 47.026-28.769 7.425-5.0183 17.14-10.649 21.588-12.513 9.0282-3.7832 17.054-8.8085 24.162-15.13 9.7737-8.6912 15.76-12.749 27.417-18.584 6.7301-3.3688 13.307-5.9973 15.007-5.9973 1.6643 0 5.7028 1.2287 8.9743 2.7303 5.3043 2.4348 6.5794 3.6528 11.777 11.25 13.576 19.844 37.5 65.598 53.082 101.52 23.999 55.325 30.33 67.785 57.674 113.5 35.029 58.562 44.72 77.197 65.257 125.48 29.266 68.801 45.73 115.37 59.932 169.52 12.844 48.971 14.632 86.287 5.5183 115.17-19.891 63.045-89.157 100.9-220.89 120.71-57.457 8.6406-174.18 18.457-235.63 19.817-24.105 0.5335-28.278 0.4006-32.688-1.0417-2.7801-0.9093-5.2463-1.6533-5.4805-1.6533-0.2343 0-0.6793 4.1625-0.9891 9.25s-1.0681 14.272-1.6852 20.411c-0.949 9.4399-0.8725 12.492 0.4962 19.796 0.89 4.7496 1.3269 9.9619 0.9709 11.583-0.5208 2.3711-0.046 3.6769 2.4307 6.6813 7.203 8.7384 0.3187 15.672-11.436 11.517zm-10.873-34.989c-0.4131-3.6798 0.2374-13.54 1.807-27.386 1.3489-11.9 2.2115-22.558 1.917-23.684-0.7512-2.8726 1.4612-9.0014 3.6775-10.188 3.2941-1.7629 8.733-1.1911 10.328 1.0857 1.4267 2.0369 1.5218 2.0423 4.8067 0.2732 2.5071-1.3502 5.2404-1.7554 10.851-1.6086 31.289 0.8187 180.41-10.045 238-17.339 100.27-12.699 162.6-33.785 197.83-66.925 30.404-28.602 38.64-63.702 28.034-119.48-7.5654-39.788-27.03-101.42-49.584-157-27.932-68.834-41.329-95.587-76.616-153-31.684-51.55-43.162-74.02-65.771-128.76-9.9009-23.972-18.443-42.438-33.066-71.479l-13.999-27.802-11.663 6.1265c-6.4147 3.3696-14.074 8.2169-17.02 10.772-12.904 11.189-19.408 15.585-32.698 22.097-7.7302 3.7879-17.841 9.6945-22.469 13.126-8.4611 6.2735-30.605 19.877-45.476 27.937-4.4 2.3847-11.21 6.4856-15.134 9.1131-3.9238 2.6275-21.918 12.256-39.988 21.396-18.07 9.1406-33.028 16.793-33.24 17.005-0.2121 0.212 1.8616 3.8923 4.6081 8.1784 7.989 12.467 56.005 91.315 65.948 108.29 31.694 54.122 86.236 162.04 100.28 198.4 7.465 19.336 7.6813 28.407 0.7776 32.606-2.6832 1.6317-4.4723 1.8383-12.196 1.4083-4.9781-0.2772-31.776-1.6165-59.551-2.9762-69.032-3.3795-105.86-5.9153-121-8.3325-3.025-0.4828-6.9633-0.6534-8.7519-0.379-2.0921 0.321-4.1726-0.1043-5.8335-1.1926-4.6844-3.0693-5.6739-7.4087-6.1378-26.915-0.2339-9.8336-0.7293-19.576-1.101-21.651l-0.6758-3.7715-18.5 22.079c-10.175 12.144-29.3 34.953-42.5 50.688s-33.214 39.617-44.476 53.071-28.024 33.391-37.25 44.304c-9.226 10.913-16.774 20.302-16.774 20.864 0 0.5623 2.1814 3.5584 4.8475 6.6581 6.5599 7.6267 17.1 22.042 27.152 37.136 28.674 43.054 47.212 68.04 71.882 96.887 9.6954 11.337 22.568 26.463 28.606 33.613 10.278 12.171 29.226 32.5 30.293 32.5 0.263 0 0.1876-2.5875-0.1674-5.75zm-713.11-66.936c-16.772-0.5123-54.926-3.4429-70.069-5.3819-69.566-8.9079-117.9-28.098-150.79-59.874-49.581-47.893-62.137-119.69-37.063-211.92 15.581-57.31 50.022-130.39 96.912-205.64 17.997-28.882 43.887-67.155 57.5-85l12.205-16-2.7257-2c-1.4991-1.1-5.5032-4.2585-8.898-7.019-3.9312-3.1966-10.305-6.8275-17.553-10-14.55-6.3679-20.189-11.422-22.057-19.768-2.2011-9.8357 1.945-15.435 10.699-14.448 3.3529 0.3779 6.5704-0.1486 11.73-1.9194 7.6432-2.623 34.9-8.7542 106.11-23.869 66.379-14.089 78.735-16.721 114.78-24.449 33.36-7.1519 41.26-8.1027 47.001-5.6567 6.4448 2.7461 8.8532 7.3889 18.874 36.383 3.2797 9.4895 8.6713 23.89 11.982 32 20.97 51.381 27.871 69.169 34.429 88.746 16.068 47.969 30.434 104.6 30.434 119.98 0 8.0987-3.3995 14.518-7.6882 14.518-3.0144 0-10.624-3.8483-15.812-7.9964-2.2-1.7591-5.35-3.8912-7-4.738s-4.6786-2.8588-6.7303-4.471c-4.2463-3.3369-25.648-13.42-30.576-14.406-3.0321-0.6064-3.3534-0.4101-4.4654 2.7289-2.6092 7.3658-19.275 39.547-31.27 60.382-16.147 28.047-31.66 56.2-43.392 78.75l-9.2349 17.75h5.2033c2.8618 0 33.612-2.2332 68.334-4.9627 81.145-6.3787 94.085-7.023 141.21-7.0308 47.938-0.01 82.048 2.0482 134.24 8.0918 15.119 1.7509 18.15 2.4106 23.901 5.2034 10.59 5.1423 10.721 5.4704 11.144 28.02 0.2502 13.349-0.3215 28.449-1.881 49.678-1.8716 25.478-2.0954 33.382-1.3595 48 0.4845 9.625 0.5976 26.725 0.2514 38s-0.23 28.6 0.2581 38.5c0.7432 15.072 0.5836 20.895-0.9813 35.8-1.7842 16.993-1.9971 17.934-4.6952 20.75-2.1785 2.2738-3.7153 2.95-6.7049 2.95-2.1333 0-4.7793-0.482-5.8802-1.0712-1.5233-0.8152-4.5536-0.4752-12.684 1.4235-15.743 3.6761-50.844 5.9673-116.68 7.6161-74.296 1.8607-286.19 3.4089-321 2.3454zm139-20.298c36.3-0.5552 96.15-1.4713 133-2.0359 66.245-1.0148 93.813-1.9432 123-4.1421 8.25-0.6216 23.1-1.2629 33-1.4252l18-0.2951 0.7487-7.3086c0.4118-4.0197 0.9287-38.584 1.1487-76.809 0.3457-60.066 0.6834-72.69 2.4879-93 1.9735-22.212 2.8096-49 1.5295-49-0.3219 0-9.2094-1.1072-19.75-2.4605-56.7-7.2795-117.32-9.9048-173.16-7.4992-24.984 1.0762-36.244 1.817-106 6.9741-23.1 1.7078-48.975 3.1907-57.5 3.2953l-15.5 0.1903-6.1484-3.2131c-7.0925-3.7065-10.352-7.3233-10.352-11.488 0-3.7909 25.34-51.304 53.598-100.5 11.752-20.459 24.376-42.959 28.053-50 11.846-22.684 16.933-30.763 20.619-32.748 3.1735-1.709 3.8199-1.7235 11.057-0.2476 11.181 2.2801 32.439 11.994 40.586 18.546l4.413 3.549-0.6072-5.1268c-0.71206-6.0123-6.1912-29.336-11.226-47.787-7.1812-26.317-20.494-63.34-37.749-104.99-15.716-37.931-27.599-72.397-29.251-84.847-0.58518-4.408-0.84029-4.7849-2.8176-4.1625-3.1111 0.9793-185.47 40.3-220.67 47.583-16.225 3.3564-30.173 6.3163-30.996 6.5775-0.8636 0.2742 1.8841 2.0942 6.5 4.3056 4.3978 2.1069 9.4018 4.8911 11.12 6.187 1.7183 1.296 5.5433 4.1829 8.5 6.4154 2.9567 2.2326 8.1749 5.7445 11.596 7.8043s7.1335 4.9063 8.25 6.3257c5.5387 7.0412-0.84721 17.386-9.8445 15.947l-3.6845-0.5892-26.082 38.727c-47.357 70.316-72.496 112.44-95.92 160.73-28.007 57.733-42.829 102.03-50.03 149.5-2.1981 14.492-2.5439 51.603-0.59167 63.5 8.0227 48.89 32.319 83.833 75.064 107.96 38.233 21.578 95.364 33.414 173.12 35.867 23.105 0.7288 83.148 0.5984 142.5-0.3093zm160.97-654.33c-1.0849-0.7241-4.2225-1.8216-6.9725-2.4388-4.9233-1.105-18.802-8.0738-100-50.211-80.42-41.734-122.43-64.346-134.3-72.28-7.7688-5.1947-9.7593-8.1553-8.2146-12.218 0.61097-1.607 0.5809-2.6847-0.0864-3.0971-0.56291-0.3479-1.4546-1.7665-1.9815-3.1525-1.2285-3.2312 1.1634-8.5732 11.098-24.786 22.015-35.927 27.42-45.129 40.219-68.469 52.29-95.358 110.37-190.44 141.05-230.92 25.37-33.474 64.103-76.624 103.34-115.13 35.546-34.878 62.184-53.379 111.37-77.357 40.739-19.858 62.833-28.272 83.5-31.8 16.497-2.8159 40.067-2.1793 55.5 1.4991 44.874 10.695 87.622 43.293 118.25 90.176 13.531 20.71 22.304 39.422 44.77 95.5 20.862 52.074 29.086 69.89 51.354 111.25 12.346 22.932 24.985 48.189 29.65 59.249 1.8558 4.4 3.6979 8.3915 4.0935 8.87s3.4311-1.2167 6.7455-3.767c11.075-8.522 36.553-21.896 46.753-24.541 2.2657-0.5877 5.2616-1.967 6.6577-3.0651 3.2413-2.5496 7.1712-2.5482 9.7228 0 2.4877 2.4877 2.5007 4.7225 0.082 14.178-2.0463 8.0012-28.447 88.709-66.747 204.05-21.432 64.542-23.757 70.952-26.592 73.338-2.5439 2.1406-3.7536 2.5029-6.6754 1.9995-1.9626-0.3382-7.14-1.049-11.505-1.5796-4.3654-0.5306-20.34-3.2427-35.5-6.0271-113.92-20.922-211.88-39.475-216.8-41.058-3.1531-1.0148-10.984-9.9863-13.46-15.421-1.5686-3.4428-0.2021-7.1773 3.5577-9.7226 1.8304-1.2392 6.0834-4.344 9.4512-6.8996s12.774-8.1097 20.904-12.342c8.1293-4.2327 15.566-8.4524 16.526-9.3771 1.6585-1.5971 1.6258-1.8582-0.6544-5.2139-1.3203-1.9428-4.7956-9.3571-7.7229-16.476-17.483-42.517-47.89-94.521-65.797-112.53-12.881-12.956-19.362-14.62-29.706-7.6292-10.278 6.9457-22.176 27.414-33.842 58.216-17.58 46.419-26.459 66.002-49.195 108.5-6.6205 12.375-19.278 37.125-28.127 55-20.734 41.881-30.94 58.134-47.493 75.638-9.3888 9.9276-17.901 13.608-23.237 10.046zm19.44-36.427c11.05-14.64 17.743-26.378 36.545-64.089 9.1406-18.333 21.324-42.07 27.073-52.749 21.369-39.687 26.131-50.016 41.509-90.029 15.633-40.676 22.371-54.321 33.887-68.625 15.431-19.167 32.105-24.195 50.798-15.318 19.252 9.1429 44.713 44.267 72.891 100.55 13.269 26.507 18.954 41.475 20.813 54.8 0.8644 6.1978 1.5717 12.448 1.5717 13.889 0 4.5541-6.4695 9.359-24.366 18.096-9.1489 4.4668-16.634 8.4868-16.634 8.9333 0 0.4466 10.462 2.7675 23.25 5.1577s29.775 5.6191 37.75 7.1752c118.65 23.152 172.99 34.034 176.98 35.44 2.2517 0.7945 4.2126 1.0095 4.5295 0.4968 0.3074-0.4973 9.5026-27.136 20.434-59.196 10.931-32.061 24.456-71.342 30.054-87.292 18.818-53.61 35.088-101.75 34.565-102.27-1.0301-1.0301-19.672 8.7864-30.124 15.863-17.215 11.655-26.078 14.36-30.982 9.4558-1.35-1.35-2.4545-3.194-2.4545-4.0978s-1.7601-5.3117-3.9114-9.7955c-2.1513-4.4837-7.7296-16.1-12.396-25.813-4.6667-9.7135-13.88-27.714-20.473-40-23.948-44.626-32.6-62.967-53.04-112.44-21.688-52.496-31.331-72.72-43.525-91.286-29.31-44.625-71.104-75.423-112.04-82.562-11.181-1.9498-28.834-1.9872-39.747-0.084-20.327 3.5447-39.386 10.756-75.368 28.516-60.751 29.987-80.549 45.415-144.85 112.88-40.751 42.756-54.709 58.798-73.185 84.11-26.567 36.398-83.537 128.3-121.52 196.03-24.104 42.984-52.422 89.264-63.489 103.76-1.9026 2.4917-3.4592 4.8611-3.4592 5.2653s1.4625 1.2986 3.25 1.9877c12.472 4.808 73.762 35.598 158.75 79.75 66.451 34.522 75.428 39.309 77.469 41.306 1.9484 1.9072 2.0196 1.8779 6.8404-2.8195 2.6793-2.6107 8.3506-9.3564 12.603-14.99z"/>
</svg>
