<?xml version="1.0" encoding="UTF-8"?>
<!-- Created with Inkscape (http://www.inkscape.org/) -->
<svg width="1674" height="1626.6" version="1.1" viewBox="0 0 1674 1626.6" xmlns="http://www.w3.org/2000/svg" xmlns:cc="http://creativecommons.org/ns#" xmlns:dc="http://purl.org/dc/elements/1.1/" xmlns:rdf="http://www.w3.org/1999/02/22-rdf-syntax-ns#">
 <metadata>
  <rdf:RDF>
   <cc:Work rdf:about="">
    <dc:format>image/svg+xml</dc:format>
    <dc:type rdf:resource="http://purl.org/dc/dcmitype/StillImage"/>
    <dc:title/>
   </cc:Work>
  </rdf:RDF>
 </metadata>
 <path d="m1058.7 1512.7c-9.3678-9.9076-38.445-43.545-58.162-67.284-14.398-17.335-30.003-38.287-46.771-62.799-23.819-34.819-31.002-44.962-38.872-54.896-6.7325-8.497-7.5458-10.008-6.5242-12.124 1.3554-2.8063 155.25-186.31 156.66-186.81 0.5186-0.1806 1.238 7.011 1.5986 15.981 1.2522 31.151 2.9616 35.595 13.693 35.6 2.8456 0 12.117 0.7228 20.604 1.6035 19.514 2.0251 56.378 4.3421 122.89 7.724 49.457 2.5147 52.565 2.5589 56.201 0.7993 5.3239-2.5767 6.858-6.0025 6.1415-13.715-1.187-12.778-14.342-42.838-48.11-109.94-35.971-71.476-54.661-104.54-109.52-193.76-10.175-16.547-18.316-30.231-18.092-30.409 0.2245-0.17815 13.055-6.8073 28.513-14.732 15.458-7.9242 31.081-16.099 34.718-18.166 21.87-12.428 54.831-32.214 66.681-40.027 7.5773-4.9962 20.091-12.459 27.809-16.585 7.7176-4.1255 17.637-10.407 22.043-13.958 10.527-8.4849 18.286-13.733 28.519-19.289l8.3843-4.5522 15.496 31.629c17.225 35.16 21.795 45.146 33.739 73.724 20.862 49.916 30.076 67.798 63.208 122.68 22.361 37.038 29.838 50.269 40.794 72.191 26.668 53.362 56.732 131 73.451 189.68 25.397 89.139 21.275 130.93-16.45 166.76-38.443 36.517-109.95 58.28-231.97 70.594-54.76 5.5264-145.69 11.936-182.96 12.897-15.951 0.4111-27.48 1.1951-30.012 2.0409-3.3907 1.1326-4.3321 1.1074-5.3702-0.1435-0.716-0.8627-3.3285-1.5168-6.0582-1.5168-5.9679 0-8.3035 2.9814-8.8993 11.36-0.2238 3.148-1.1508 14.403-2.0599 25.011-0.9092 10.608-1.7664 21.722-1.9051 24.698l-0.2521 5.4105zm-406.76-757.64c-17.261-10.497-194.64-101.49-222.64-114.21-6.365-2.892-11.772-5.4274-12.016-5.6342-0.24371-0.20688 1.4214-2.9873 3.7002-6.1786 13.099-18.345 34.889-54.016 61.903-101.34 36.991-64.801 69.713-118.55 100.18-164.57 32.809-49.552 41.728-60.431 97.962-119.48 60.262-63.283 81.258-79.705 138.33-108.2 25.725-12.842 43.545-20.598 57.598-25.069 17.335-5.5157 22.224-6.2371 41.698-6.1517 19.799 0.0868 25.888 1.2088 43.571 8.0281 31.595 12.184 63.938 40.12 86.925 75.079 12.768 19.419 18.755 31.879 43.481 90.498 21.949 52.036 28.546 66.108 51.229 109.27 15.918 30.291 32.028 62.986 39.844 80.867 3.2139 7.3524 11.92 6.6823 26.094-2.0084 24.639-15.108 36.197-21.223 36.197-19.153 0 2.0521-83.617 244.5-84.697 245.58-0.457 0.45697-30.564-5.0963-66.905-12.341-36.341-7.2443-89.385-17.669-117.88-23.166s-52.728-10.378-53.862-10.848c-1.6078-0.66613 1.5601-2.726 14.429-9.3817 19.253-9.958 23.452-13.443 23.452-19.469 0-7.114-3.1281-22.47-6.6532-32.661-4.7001-13.588-25.318-54.846-37.701-75.441-14.101-23.454-22.621-35.067-34.382-46.861-12.716-12.752-19.114-16.094-32.121-16.777-8.4433-0.44316-9.7061-0.21802-16.433 2.9299-12.918 6.0449-25.735 21.475-36.404 43.823-2.6363 5.5224-9.0822 20.898-14.324 34.167-5.242 13.269-10.806 27.35-12.364 31.29-5.1729 13.08-15.319 34.516-23.998 50.699-4.7138 8.7897-18.826 36.068-31.36 60.619-12.535 24.551-25.945 49.691-29.8 55.867-7.8028 12.499-24.615 33.454-26.735 33.323-0.75231-0.0465-3.5997-1.4419-6.3276-3.1008zm-295.91 675.87c-74.718-2.3558-131.45-13.134-169.24-32.156-30.691-15.447-56.687-41.273-69.328-68.873-4.7118-10.288-8.8733-22.862-11.325-34.219-1.6018-7.4189-1.9408-14.334-1.9018-38.787 0.0418-26.229 0.34508-31.327 2.5567-42.984 9.3307-49.182 24.051-89.953 54.318-150.44 22.199-44.366 44.413-81.248 89.179-148.06l25.966-38.754 4.8946-0.60165c6.7003-0.82361 9.4612-2.5828 10.901-6.9462 1.5678-4.7504 0.28162-8.2117-4.5264-12.181-6.1093-5.0438-22.582-16.345-31.022-21.283-4.3625-2.5522-8.667-5.0806-9.5657-5.6187-1.154-0.69097 0.78828-1.5044 6.613-2.7694 4.5358-0.9851 47.677-10.222 95.868-20.527 48.192-10.305 101-21.689 117.34-25.298 16.346-3.609 30.052-6.3564 30.458-6.1055 0.406 0.25093 1.0796 2.8182 1.4968 5.705 1.2968 8.973 15.249 48.987 28.732 82.4 15.073 37.354 24.711 63.19 31.832 85.325 5.5099 17.127 15.593 56.492 16.799 65.581l0.74038 5.5814-4.067-3.1021c-6.5231-4.9754-28.182-14.875-37.947-17.344-7.7252-1.9535-9.4134-2.0694-12.003-0.82345-4.313 2.0753-9.6441 9.6739-18.971 27.041-4.4867 8.354-17.724 32.103-29.416 52.776-35.791 63.281-55.559 100.63-55.559 104.98 0 3.2076 4.0764 7.6438 10.308 11.218 5.1875 2.9752 6.5689 3.2541 16.143 3.2596 11.437 0.01 41.8-1.8224 99.745-6.008 63.024-4.5523 84.241-5.3262 127.3-4.6431 47.449 0.7527 78.582 3.0189 128.95 9.3866l6.0619 0.7664-0.28379 17.064c-0.15608 9.3854-0.75503 22.272-1.331 28.637-0.57595 6.3649-1.5645 46.787-2.1967 89.826-0.63224 43.039-1.4232 80.779-1.7576 83.867l-0.6081 5.6133-23.363 0.7573c-12.85 0.4165-29.665 1.2179-37.368 1.781-39.962 2.9212-335.53 7.5099-384.43 5.9682z" fill="#09814a" stroke="#000" stroke-linecap="round" stroke-linejoin="round" stroke-width="8.39"/>
</svg>
